<?xml version="1.0" standalone="no"?>
<!DOCTYPE svg PUBLIC "-//W3C//DTD SVG 20010904//EN"
 "http://www.w3.org/TR/2001/REC-SVG-20010904/DTD/svg10.dtd">
<svg version="1.0" xmlns="http://www.w3.org/2000/svg"
 width="653.000000pt" height="501.000000pt" viewBox="0 0 653.000000 501.000000"
 preserveAspectRatio="xMidYMid meet">
<metadata>
Created by potrace 1.16, written by Peter Selinger 2001-2019
</metadata>
<g transform="translate(0.000000,501.000000) scale(0.100000,-0.100000)"
fill="#000000" stroke="none">
<path d="M3761 4796 c-6 -8 -13 -37 -14 -65 -2 -44 -4 -49 -14 -34 -12 15 -13
14 -13 -11 0 -15 4 -25 10 -21 6 3 7 -1 3 -10 -4 -12 -8 -13 -13 -5 -4 7 -13
10 -19 6 -7 -5 -9 -1 -5 9 10 24 -21 8 -36 -19 -10 -19 -9 -29 4 -54 9 -17 16
-42 16 -57 0 -22 4 -25 34 -25 26 0 41 7 60 31 25 29 30 42 39 101 3 19 0 25
-10 21 -7 -3 -13 -9 -13 -14 0 -5 -6 -9 -12 -9 -7 0 -1 11 13 23 22 20 25 31
24 73 -1 28 -5 56 -9 62 -10 16 -31 15 -45 -2z"/>
<path d="M5037 4784 c-2 -2 -13 -5 -26 -7 -12 -2 -26 -9 -30 -16 -6 -10 -10
-9 -14 4 -5 11 -11 13 -24 7 -10 -5 -43 -9 -73 -8 -66 2 -97 -12 -145 -66 -33
-36 -37 -45 -33 -82 3 -24 20 -65 41 -98 47 -72 55 -74 192 -39 22 6 53 13 70
17 29 5 29 6 11 20 -18 13 -18 14 -2 14 12 0 16 5 12 15 -3 8 -3 22 0 30 5 12
9 12 30 -2 13 -8 25 -11 25 -7 1 5 3 19 4 32 1 12 6 26 10 30 4 4 6 0 5 -8 -1
-8 -2 -24 -1 -35 1 -17 3 -18 11 -5 5 8 10 11 10 5 0 -5 5 -3 10 5 6 10 10 11
10 3 0 -7 5 -13 10 -13 6 0 10 6 9 13 -3 20 12 47 24 40 21 -13 -3 59 -32 96
-26 32 -92 67 -104 55z"/>
<path d="M4247 4561 c2 -10 -2 -11 -19 -5 -41 14 -131 9 -168 -11 -19 -10 -54
-35 -78 -57 -23 -21 -54 -41 -70 -44 -15 -3 -36 -12 -47 -20 -17 -12 -18 -16
-5 -24 17 -10 79 -19 180 -25 57 -3 89 -12 135 -34 33 -17 64 -26 68 -22 5 5
41 -8 81 -29 69 -36 78 -38 172 -39 115 -1 142 9 104 39 -14 11 -34 22 -45 26
-11 3 -54 22 -95 42 -77 36 -146 51 -134 29 5 -8 2 -8 -7 1 -7 6 -25 12 -39
12 -15 0 -27 6 -27 13 0 6 -4 24 -7 38 -5 19 -2 31 10 44 22 22 29 79 9 71 -8
-3 -16 -2 -18 2 -2 4 -2 1 0 -7z"/>
<path d="M5158 4512 c-24 -18 -35 -32 -31 -42 3 -8 7 -49 9 -90 4 -105 20
-148 69 -182 46 -31 89 -35 142 -13 57 24 78 52 76 103 -1 28 3 45 12 48 36
14 -16 115 -75 144 -36 17 -135 26 -126 12 4 -7 1 -12 -8 -12 -8 0 -19 -8 -25
-17 -5 -10 -13 -14 -17 -10 -5 4 7 21 25 36 33 28 33 29 13 40 -25 13 -19 15
-64 -17z"/>
<path d="M3137 4224 c-2 -2 -41 -5 -88 -8 -46 -2 -104 -12 -129 -21 -25 -9
-53 -14 -63 -11 -10 2 -85 -20 -168 -50 -82 -30 -155 -52 -161 -48 -6 4 -8 3
-5 -3 4 -6 -14 -18 -41 -28 -76 -29 -175 -77 -208 -102 -16 -12 -52 -32 -78
-44 -26 -11 -45 -23 -42 -26 6 -6 -76 -70 -110 -85 -13 -6 -21 -14 -19 -18 3
-4 -11 -15 -30 -24 -19 -9 -35 -19 -35 -22 0 -3 6 -2 13 2 8 5 8 2 -2 -9 -7
-9 -20 -17 -29 -17 -8 0 -13 -3 -9 -6 7 -7 -88 -104 -102 -104 -5 0 -13 -5
-17 -12 -4 -7 -3 -8 4 -4 7 4 12 3 12 -3 0 -5 -4 -11 -8 -13 -4 -1 -34 -34
-65 -73 -78 -94 -77 -93 -77 -101 0 -3 -13 -23 -30 -44 -16 -21 -30 -42 -30
-47 0 -6 -9 -18 -20 -28 -10 -9 -19 -20 -18 -24 1 -3 -24 -58 -54 -121 -87
-180 -102 -214 -100 -224 9 -31 -40 -112 -60 -100 -4 2 -10 -1 -14 -7 -5 -9 1
-10 21 -5 23 6 26 4 21 -9 -3 -9 -6 -21 -6 -26 0 -5 -8 -9 -17 -9 -15 0 -15
-2 -4 -9 9 -6 11 -16 6 -27 -4 -11 -9 -30 -10 -44 -7 -59 -13 -83 -25 -90 -8
-5 -9 -9 -1 -11 8 -3 8 -21 1 -64 -6 -33 -11 -90 -11 -127 0 -45 -4 -68 -12
-68 -9 0 -9 -2 0 -8 13 -8 23 -122 11 -122 -4 0 -8 -5 -8 -11 0 -5 5 -7 10 -4
6 4 10 -8 10 -28 0 -30 -5 -36 -37 -51 -28 -12 -31 -14 -11 -11 14 3 33 8 42
11 12 5 16 0 16 -19 0 -18 -8 -28 -27 -36 -28 -11 -28 -11 5 -5 29 5 32 3 32
-19 0 -21 -7 -26 -46 -36 -56 -14 -55 -24 1 -11 28 6 42 5 47 -3 12 -19 9 -27
-10 -27 -10 0 -22 -4 -27 -9 -6 -4 -24 -11 -41 -14 -30 -6 -32 -4 -38 31 -9
54 -8 62 8 62 8 0 18 5 22 11 4 8 0 9 -15 4 -18 -5 -21 -2 -21 19 0 14 6 26
13 26 8 0 7 4 -3 10 -13 9 -12 13 9 30 13 11 19 20 14 20 -5 0 -14 -5 -20 -11
-9 -9 -12 -7 -12 7 0 10 -3 32 -7 48 -5 19 -2 31 7 37 10 6 11 9 1 9 -9 0 -11
14 -8 48 2 26 4 62 5 80 1 20 10 42 25 57 17 17 20 25 11 29 -8 3 -16 -3 -19
-12 -2 -9 -2 17 1 58 3 41 9 77 12 80 3 3 7 23 8 45 3 72 19 152 36 173 5 7 7
15 5 18 -12 12 46 181 102 299 18 37 30 69 27 71 -6 7 -83 -155 -115 -241 -39
-107 -70 -228 -94 -360 -19 -106 -22 -161 -24 -465 -2 -388 -7 -419 -79 -529
-34 -51 -40 -75 -13 -54 22 17 310 123 333 123 25 -1 -33 -30 -140 -70 -63
-24 -113 -45 -111 -47 4 -4 62 15 184 62 62 24 75 26 83 14 5 -8 9 -16 9 -19
0 -3 -39 -20 -86 -39 -47 -18 -83 -36 -80 -39 4 -3 16 -1 29 5 88 42 147 61
147 46 0 -4 -24 -17 -52 -27 -29 -10 -66 -24 -83 -31 -16 -7 -59 -23 -95 -35
-36 -12 -74 -26 -85 -30 -27 -12 -199 -75 -315 -116 -52 -19 -104 -38 -115
-44 -55 -25 -157 -61 -166 -58 -10 3 180 81 366 149 236 86 348 135 351 150 1
12 -4 15 -17 12 -10 -3 -19 -11 -19 -18 0 -12 -48 -32 -200 -85 -36 -12 -81
-29 -100 -37 -19 -9 -75 -30 -125 -48 -49 -18 -128 -47 -174 -64 -46 -17 -86
-29 -88 -27 -2 2 31 16 73 32 114 41 76 40 -46 -2 -58 -19 -114 -38 -125 -40
-20 -5 -20 -5 -1 10 17 13 17 16 4 16 -41 0 -48 -11 -48 -71 0 -88 17 -155 65
-254 46 -94 139 -213 180 -229 18 -7 30 -4 52 13 255 197 382 287 435 311 100
43 249 51 334 15 50 -21 190 -124 343 -253 190 -161 209 -175 353 -266 229
-143 582 -264 863 -296 296 -33 667 10 949 111 111 39 331 145 402 193 116 78
169 118 242 183 45 40 89 73 97 73 8 0 28 -20 43 -46 25 -39 30 -43 41 -30 12
14 16 12 37 -17 13 -17 28 -42 34 -55 24 -56 65 -34 72 40 6 52 -8 89 -18 51
-8 -30 -24 -19 -24 17 0 34 -17 81 -33 93 -7 5 -3 6 10 2 12 -3 32 -3 46 0 19
5 23 11 19 27 -4 17 -1 19 16 14 17 -6 19 -3 15 14 -3 11 0 20 6 20 13 0 15
46 1 55 -17 10 0 30 28 32 45 4 96 2 101 -3 2 -2 -8 -17 -22 -32 -15 -16 -27
-33 -27 -40 0 -10 26 -17 52 -14 3 1 11 -5 18 -12 9 -11 7 -16 -9 -21 -43 -13
-21 -26 34 -20 46 6 55 5 55 -8 0 -37 -10 -45 -52 -39 l-41 5 28 -31 c23 -26
36 -32 70 -32 26 0 48 -6 55 -15 7 -8 19 -15 27 -15 10 0 11 -5 4 -18 -5 -10
-6 -24 -1 -31 11 -19 53 13 74 56 14 30 18 32 41 23 34 -13 82 -13 90 0 3 5 1
19 -6 31 -9 17 -8 20 2 14 7 -5 4 4 -7 18 -10 15 -22 27 -26 27 -5 0 -8 6 -8
13 0 8 -12 24 -26 38 l-27 24 5 -25 c3 -14 9 -33 13 -44 6 -14 5 -18 -6 -14
-9 3 -16 26 -20 64 -3 32 -14 86 -24 119 -25 80 -25 84 -9 78 7 -2 23 2 36 11
29 21 38 20 38 -3 0 -23 16 -30 56 -25 16 2 21 1 12 -2 -20 -6 -24 -20 -7 -26
8 -3 6 -10 -5 -21 -16 -15 -16 -18 -1 -23 8 -4 28 -4 43 -1 15 2 36 1 47 -3
17 -7 17 -9 3 -9 -10 -1 -19 -5 -19 -11 -3 -20 -5 -25 -15 -44 -11 -18 -12
-18 -25 1 -17 23 -58 47 -67 38 -27 -26 1 -95 38 -95 10 0 23 -7 30 -15 7 -8
21 -15 31 -15 11 0 28 -9 39 -20 19 -19 20 -19 32 3 11 21 17 50 18 90 1 11
12 29 25 41 16 15 22 29 19 44 -4 11 1 34 9 50 14 29 14 30 -12 34 -23 3 -27
1 -24 -16 3 -16 -6 -26 -33 -39 -20 -10 -39 -16 -42 -13 -3 3 3 8 12 12 29 11
17 23 -18 17 -29 -4 -36 -2 -46 18 -10 20 -10 22 1 12 22 -22 42 -15 92 31 51
48 55 57 32 76 -9 7 -14 22 -13 34 2 15 -2 20 -14 18 -10 -2 -18 2 -18 8 0 5
5 10 12 10 20 0 2 11 -28 16 -16 3 -37 12 -46 21 -10 9 -21 13 -25 10 -3 -4
-11 1 -18 10 -14 19 -45 26 -45 10 0 -8 -4 -7 -12 1 -16 16 -64 15 -121 -2
-25 -7 -48 -12 -50 -9 -7 6 -57 -18 -104 -49 -48 -32 -113 -39 -113 -12 0 9
15 44 34 77 98 180 165 375 191 557 19 135 25 222 23 340 -1 74 -3 104 -5 67
-4 -67 -5 -69 -38 -83 -19 -8 -38 -14 -42 -14 -4 0 -8 37 -9 83 0 110 -15 274
-29 333 -3 15 2 25 18 33 l22 11 -22 -6 c-39 -9 -25 15 17 32 22 9 40 20 40
25 0 15 -38 150 -58 209 -34 98 -103 242 -165 345 -68 113 -72 120 -62 85 4
-14 10 -27 14 -30 8 -7 28 -39 43 -70 7 -14 17 -28 22 -31 5 -4 6 -14 3 -23
-4 -9 -1 -15 6 -13 7 1 12 -5 12 -13 0 -8 5 -18 10 -22 6 -5 4 -12 -5 -19 -13
-9 -12 -10 2 -5 18 5 33 -13 39 -49 2 -11 7 -22 10 -25 3 -3 13 -19 21 -37 12
-23 13 -34 4 -44 -8 -9 -8 -10 0 -6 7 4 18 -8 27 -31 17 -42 57 -175 57 -188
0 -5 -14 -15 -31 -23 -16 -7 -28 -15 -25 -18 2 -2 14 1 26 7 11 6 26 9 33 7 7
-2 -6 -12 -27 -21 -22 -9 -40 -15 -42 -13 -2 1 -5 17 -9 34 -3 18 -9 43 -14
56 -6 14 -7 27 -4 30 3 3 1 12 -3 19 -5 7 -9 19 -11 27 -1 7 -11 36 -23 63
-11 27 -18 53 -15 57 3 5 -1 11 -7 14 -10 3 -10 8 2 23 14 17 14 18 -2 6 -15
-12 -19 -8 -37 33 -12 26 -18 51 -15 56 3 5 1 9 -4 9 -5 0 -15 12 -23 28 -7
15 -30 55 -51 90 l-37 62 27 15 c15 8 23 14 19 15 -5 0 -18 -5 -29 -11 -26
-14 -51 6 -28 22 13 9 12 10 -2 6 -12 -4 -24 5 -39 31 -13 20 -22 40 -21 45 1
4 -2 7 -6 7 -5 0 -24 21 -42 47 -69 96 -248 280 -345 354 -33 25 -110 76 -172
114 -62 37 -110 72 -107 76 3 5 2 9 -3 10 -41 4 -74 14 -131 41 -70 32 -164
63 -317 104 -124 34 -124 34 -180 39 -27 3 -70 8 -95 11 -47 6 -348 13 -353 8z
m133 -114 c0 -5 11 -9 25 -8 14 1 25 6 25 10 0 5 14 -2 31 -14 18 -13 33 -19
37 -13 8 12 82 14 82 2 0 -4 9 -3 19 2 13 7 28 7 48 0 20 -7 38 -7 57 1 36 13
39 13 24 -4 -7 -8 -16 -12 -20 -10 -4 2 -9 0 -13 -6 -8 -13 11 -13 36 0 15 8
23 7 35 -5 8 -8 21 -15 27 -15 7 0 6 5 -3 11 -12 8 -10 9 7 4 12 -3 33 -1 45
5 21 11 21 10 -2 -9 -19 -16 -20 -20 -6 -14 13 4 17 3 12 -5 -5 -9 0 -9 19 -2
17 7 24 7 20 0 -3 -6 0 -11 7 -12 7 0 18 -2 23 -3 6 -2 16 -3 23 -4 7 0 10 -5
7 -11 -3 -5 -2 -10 4 -10 5 0 13 5 16 10 5 8 11 7 21 -1 8 -6 14 -8 14 -4 0 5
9 0 19 -9 11 -10 25 -15 31 -11 7 4 18 -2 27 -14 12 -19 17 -20 31 -9 10 7 14
8 10 4 -8 -10 35 -36 59 -36 15 0 45 -25 38 -31 -2 -2 8 -5 21 -5 15 -1 21 2
17 10 -4 6 8 -4 26 -22 18 -17 36 -30 41 -27 5 3 12 0 15 -6 4 -5 13 -8 21 -5
8 3 14 1 14 -5 0 -5 16 -19 35 -30 19 -12 33 -25 30 -29 -3 -5 8 -11 25 -15
17 -4 28 -10 25 -15 -3 -5 8 -11 25 -15 16 -4 30 -13 30 -20 0 -8 9 -16 19
-20 11 -3 22 -12 25 -20 3 -8 11 -15 18 -15 7 0 19 -9 26 -20 7 -12 17 -18 22
-15 6 3 7 -1 4 -10 -5 -11 -2 -14 12 -8 14 5 16 3 11 -11 -4 -9 -3 -15 2 -12
12 8 54 -31 46 -43 -3 -7 3 -11 16 -11 18 0 19 -2 9 -15 -10 -13 -9 -15 8 -15
12 0 24 -4 27 -10 3 -5 1 -10 -4 -10 -6 0 -11 -5 -11 -11 0 -5 5 -7 10 -4 6 4
18 4 27 1 14 -6 14 -9 -3 -27 -16 -18 -16 -19 -1 -13 9 3 25 3 35 -1 16 -6 16
-8 -3 -22 -20 -15 -20 -15 2 -10 27 6 39 -8 24 -27 -9 -11 -5 -15 20 -20 27
-5 30 -8 19 -21 -11 -13 -8 -15 14 -15 14 0 26 -5 26 -11 0 -5 -4 -8 -9 -5 -5
3 -14 -1 -21 -9 -7 -8 -16 -15 -19 -15 -4 0 -28 29 -54 63 -69 95 -247 274
-288 290 -12 5 -11 7 1 17 12 9 11 10 -7 5 -12 -3 -35 1 -53 10 -25 13 -30 13
-30 1 0 -7 7 -19 15 -26 17 -14 21 -35 5 -25 -5 3 -10 2 -10 -4 0 -12 21 -20
38 -13 10 3 10 7 0 20 -22 26 27 -7 74 -50 46 -42 43 -52 -3 -13 -19 15 -36
22 -47 18 -15 -6 -15 -5 -3 10 7 9 9 17 3 17 -5 0 -15 -7 -22 -15 -7 -8 -8
-15 -4 -15 5 0 14 -10 19 -22 6 -12 16 -23 23 -24 7 -1 8 0 2 3 -5 2 -10 9
-10 15 0 13 59 -34 59 -49 1 -6 15 -25 31 -41 17 -17 30 -35 30 -40 0 -5 7
-13 15 -16 9 -3 21 -19 28 -35 12 -29 12 -29 47 -14 25 12 30 17 18 20 -16 4
-34 38 -30 56 1 4 -4 7 -11 7 -6 0 -21 13 -32 29 -10 16 -22 28 -26 25 -4 -2
-10 0 -13 5 -4 5 -2 12 2 15 9 5 115 -103 132 -135 7 -12 0 -19 -31 -33 -37
-17 -39 -19 -22 -32 10 -7 22 -14 26 -14 5 0 15 -7 24 -15 11 -11 19 -13 27
-5 7 5 15 7 18 4 9 -8 -78 -85 -94 -84 -18 3 -58 -11 -58 -20 0 -4 -11 -5 -25
-3 -34 7 -42 39 -16 67 12 12 21 28 21 34 0 7 4 12 10 12 5 0 0 11 -11 24 -25
29 -88 44 -100 24 -14 -21 -11 -23 31 -24 41 -1 59 -9 47 -20 -3 -4 -19 -2
-35 4 -19 6 -34 6 -47 0 -14 -8 -16 -8 -11 3 4 8 -1 3 -12 -10 l-20 -24 39
-41 c22 -23 41 -54 45 -73 7 -38 0 -53 -18 -35 -19 19 -28 14 -28 -17 0 -39 7
-42 55 -25 28 10 48 11 68 4 21 -7 27 -6 27 6 0 19 7 18 39 -5 21 -15 27 -27
26 -56 -1 -23 4 -39 12 -42 7 -3 13 -13 12 -22 0 -10 -2 -11 -6 -3 -10 24 -38
13 -39 -16 -1 -15 1 -21 3 -14 8 20 39 14 51 -10 9 -20 11 -20 11 -4 1 16 3
16 17 5 10 -8 14 -22 10 -39 -3 -15 0 -32 7 -39 8 -8 7 -11 -3 -11 -8 -1 -3
-8 13 -16 15 -8 27 -17 27 -20 0 -3 -5 -2 -10 1 -6 3 -14 -5 -20 -19 -5 -14
-12 -26 -14 -26 -16 0 -56 25 -56 36 0 16 -31 27 -43 15 -9 -9 28 -41 49 -41
7 0 15 -7 18 -16 3 -8 10 -13 15 -10 5 3 14 -1 21 -9 11 -13 10 -14 -2 -10 -9
4 -18 0 -21 -9 -7 -18 42 -50 91 -61 31 -6 33 -5 27 14 -7 24 2 26 42 9 15 -6
32 -10 36 -9 5 1 6 -12 2 -29 -4 -18 -3 -30 4 -30 22 0 15 47 -14 92 -23 36
-35 46 -55 45 l-25 -2 3 85 c1 46 6 86 10 90 13 8 22 39 13 44 -5 3 -11 24
-15 46 -5 31 -11 40 -26 40 -10 0 -27 13 -37 30 -9 17 -24 30 -33 30 -8 0 -30
19 -49 41 -37 45 -38 43 32 80 20 10 37 26 37 33 0 15 17 24 68 36 37 9 43 -1
10 -19 -22 -11 -22 -11 4 -8 35 5 46 -20 15 -33 -18 -8 -16 -9 11 -4 20 3 32
2 32 -5 0 -6 -4 -11 -8 -11 -5 0 -17 -7 -28 -15 -17 -13 -16 -14 19 -8 38 6
46 -3 25 -26 -11 -11 -9 -13 10 -8 24 6 32 -17 10 -26 -7 -3 -2 -6 12 -6 20
-1 22 -3 10 -11 -13 -9 -7 -14 13 -11 12 2 8 -17 -5 -22 -7 -3 -2 -6 11 -6 20
-1 21 -3 11 -16 -9 -11 -9 -15 -1 -15 7 0 9 -4 6 -10 -3 -6 4 -10 17 -10 20
-1 19 -3 -12 -20 -19 -11 -43 -19 -53 -20 -10 0 -16 -4 -12 -9 3 -6 19 -4 40
5 47 19 72 19 55 -1 -7 -8 -21 -15 -31 -15 -10 0 -20 -4 -24 -9 -3 -6 9 -7 30
-4 23 4 35 2 35 -6 0 -6 -5 -11 -11 -11 -6 0 -4 -7 5 -15 8 -9 13 -22 10 -29
-3 -9 2 -16 13 -18 14 -2 9 -8 -20 -25 -35 -21 -37 -21 -37 -3 0 10 6 20 13
23 6 2 4 3 -5 2 -10 -2 -20 6 -24 17 -14 44 -15 6 -1 -49 8 -32 18 -78 22
-103 3 -25 11 -60 16 -77 13 -42 21 -96 23 -153 1 -25 4 -49 7 -55 3 -5 9 -18
13 -29 5 -15 2 -17 -14 -13 -21 5 -19 -4 7 -34 8 -9 12 -27 10 -40 -3 -13 -1
-33 3 -44 4 -11 3 -35 -2 -55 -9 -36 -20 -121 -19 -152 0 -10 -4 -18 -10 -18
-5 0 -9 -17 -10 -37 -1 -51 -23 -119 -37 -115 -10 2 -14 -5 -14 -28 -1 -3 2
-21 6 -40 4 -25 3 -31 -4 -20 -16 24 -12 2 6 -32 15 -28 15 -35 -2 -87 -10
-31 -19 -62 -20 -70 -2 -8 -10 -19 -19 -24 -15 -8 -15 -10 2 -23 13 -11 8 -10
-17 2 -45 22 -47 23 -30 34 8 5 11 12 7 16 -4 4 -14 -1 -23 -12 -14 -18 -15
-18 -9 6 5 21 4 22 -5 7 -14 -22 -35 -22 -60 3 -20 20 -54 17 -47 -3 2 -6 34
-24 73 -40 104 -44 104 -44 52 -124 -25 -37 -53 -83 -64 -101 -19 -33 -46 -48
-64 -37 -5 3 -10 2 -10 -3 0 -5 10 -14 23 -21 12 -6 14 -9 5 -7 -22 6 -48 -3
-48 -16 0 -5 4 -7 9 -3 5 3 12 1 15 -4 4 -5 -5 -8 -19 -6 -25 2 -25 2 -8 -18
10 -11 12 -17 5 -13 -14 8 -45 -18 -34 -29 4 -5 1 -5 -6 -1 -7 4 -26 -2 -42
-14 -24 -17 -29 -27 -24 -43 6 -19 5 -20 -9 -9 -15 13 -34 1 -23 -16 2 -4 -4
-9 -15 -9 -25 -2 -51 -22 -43 -34 3 -5 -3 -6 -12 -2 -12 4 -15 3 -10 -5 4 -7
1 -12 -8 -12 -9 0 -16 -4 -16 -10 0 -5 -10 -10 -22 -10 -12 0 -19 -3 -15 -6 8
-8 -7 -22 -63 -61 -25 -17 -56 -40 -69 -52 -13 -12 -35 -21 -48 -21 -14 0 -23
-6 -23 -16 0 -8 -4 -12 -10 -9 -5 3 -10 2 -10 -3 0 -5 -17 -21 -38 -36 -32
-22 -50 -27 -98 -26 -91 0 -92 0 -98 -16 -3 -8 -15 -14 -26 -14 -11 0 -23 -7
-27 -16 -5 -12 -7 -13 -14 -2 -6 10 -11 10 -21 0 -17 -17 -48 -15 -48 4 0 8 4
13 9 10 5 -4 7 3 4 13 -3 13 2 21 16 26 14 4 18 11 14 23 -6 15 -5 15 10 3 9
-7 14 -17 11 -22 -3 -5 -1 -9 5 -9 6 0 13 16 17 36 4 25 9 32 15 23 11 -19 34
4 26 25 -7 18 -27 22 -27 6 0 -5 -4 -10 -10 -10 -5 0 -10 7 -10 16 0 8 -4 12
-10 9 -5 -3 -10 -15 -10 -26 0 -11 -4 -17 -10 -14 -5 3 -10 0 -11 -7 0 -10 -2
-10 -6 0 -2 6 -13 12 -22 12 -23 0 -67 39 -75 67 -5 16 0 28 20 46 17 16 22
27 15 31 -6 4 -11 2 -11 -5 0 -8 -5 -8 -16 2 -14 11 -19 10 -35 -10 -21 -26
-24 -41 -8 -41 5 0 8 4 4 9 -3 6 3 15 13 20 18 10 18 9 0 -29 -18 -36 -25 -57
-27 -85 -1 -5 -6 -3 -11 5 -5 8 -10 10 -10 4 0 -14 -44 -34 -75 -34 -18 0 -25
5 -25 20 0 11 5 20 10 20 6 0 19 9 30 20 11 11 16 20 10 20 -5 0 -7 7 -4 15 4
8 12 15 19 15 19 0 45 45 45 77 0 14 -9 37 -21 49 -17 18 -26 21 -49 14 -24
-7 -27 -5 -23 11 3 11 0 19 -6 19 -7 0 -10 -4 -6 -9 3 -5 1 -12 -4 -15 -5 -3
-16 9 -25 28 -17 35 -56 52 -75 33 -8 -8 -11 -7 -11 1 0 7 5 12 10 12 6 0 10
7 10 16 0 9 -6 14 -13 11 -10 -4 -12 3 -9 24 4 26 1 29 -23 29 -20 0 -26 -4
-22 -14 4 -9 -2 -17 -13 -21 -20 -6 -33 -31 -24 -46 9 -16 24 -10 17 8 -4 11
-3 14 5 9 7 -4 15 -1 18 8 11 28 24 17 24 -19 0 -22 5 -35 13 -35 7 0 26 -13
41 -29 23 -24 25 -30 11 -33 -13 -2 -17 -17 -20 -63 -2 -36 -9 -63 -18 -70 -8
-5 -13 -21 -12 -35 4 -42 -11 -51 -56 -35 -52 19 -77 5 -75 -39 0 -17 5 -34
10 -37 11 -9 0 -39 -14 -39 -6 0 -10 8 -9 18 3 34 -1 41 -18 35 -16 -6 -16 -4
1 15 18 21 18 22 -8 32 -33 12 -39 13 -32 1 3 -5 -3 -20 -14 -32 l-20 -24 -25
28 c-14 15 -25 23 -25 16 0 -6 -8 -9 -19 -6 -13 3 -26 -5 -41 -24 -11 -16 -25
-27 -31 -24 -5 4 -9 -3 -9 -14 0 -12 5 -21 12 -21 6 0 2 -9 -11 -21 l-22 -21
23 -16 c13 -9 29 -22 36 -29 17 -16 72 -17 123 -1 22 6 42 8 47 3 4 -4 1 -10
-6 -12 -15 -6 -6 -23 14 -23 8 0 14 10 14 24 0 18 7 25 30 29 16 4 37 4 45 1
11 -5 13 -2 9 10 -8 21 13 21 33 1 19 -19 12 -27 -22 -27 -20 0 -23 -3 -14
-14 9 -11 6 -14 -17 -15 l-29 -1 28 -10 c28 -10 81 -3 73 10 -2 4 16 5 40 3
24 -1 44 -7 44 -11 0 -4 -19 -6 -42 -3 -41 5 -42 5 -23 -11 14 -12 15 -14 4
-10 -10 3 -20 0 -24 -6 -6 -9 -9 -9 -15 0 -5 8 -16 9 -30 5 -17 -5 -19 -9 -9
-16 8 -5 16 -3 21 4 11 18 10 1 -3 -26 -8 -18 -17 -23 -34 -19 -12 2 -31 -1
-42 -6 -21 -12 -116 2 -121 18 -2 6 -8 10 -13 10 -6 0 -39 14 -74 30 -36 17
-76 31 -89 32 -14 1 -22 6 -20 10 3 4 -4 8 -15 8 -11 0 -23 -4 -26 -10 -3 -5
-22 -10 -41 -10 -19 0 -34 -5 -34 -11 0 -12 -99 -4 -113 10 -5 5 -16 7 -23 4
-8 -3 -14 -1 -14 5 0 5 -11 13 -25 16 -14 4 -25 13 -25 21 0 8 -4 15 -10 15
-5 0 -10 -5 -10 -11 0 -5 -15 1 -33 15 -19 15 -39 26 -45 26 -7 0 -12 4 -12
10 0 5 -3 9 -7 8 -5 -1 -19 5 -33 13 -131 82 -166 105 -173 116 -5 8 -12 11
-16 9 -4 -3 -23 10 -41 29 -19 19 -38 35 -43 35 -6 0 -29 17 -52 38 -54 47
-87 72 -97 72 -4 0 -8 6 -8 14 0 8 -16 23 -35 35 -19 11 -35 25 -35 31 0 5 -6
10 -12 10 -7 0 -34 20 -60 45 -27 24 -48 42 -48 38 0 -3 -9 4 -19 16 -12 13
-26 20 -33 16 -7 -3 7 12 31 34 64 57 74 57 132 -1 36 -36 62 -53 96 -61 26
-7 48 -18 51 -25 2 -7 -2 -10 -12 -6 -12 5 -15 2 -10 -10 3 -9 12 -16 20 -16
8 0 14 -5 14 -11 0 -5 -4 -7 -10 -4 -6 3 -10 3 -10 -2 0 -14 59 -43 75 -37 9
4 15 0 15 -10 0 -9 8 -16 20 -16 11 0 20 -3 20 -7 0 -5 10 -9 23 -10 12 0 44
-11 71 -22 45 -20 48 -23 42 -51 -3 -17 -1 -30 4 -30 6 0 9 3 8 7 -1 5 1 18 6
30 5 15 12 20 24 16 15 -6 15 -4 -2 15 -10 12 -23 19 -27 16 -5 -3 -12 2 -15
11 -7 18 -65 45 -103 47 -39 3 -73 28 -68 50 4 14 -7 25 -41 45 -26 15 -50 31
-53 36 -3 5 -12 8 -20 7 -39 -6 -63 3 -95 36 -20 21 -33 43 -30 51 4 8 6 22 6
31 0 10 3 13 8 7 4 -5 15 -16 25 -24 16 -13 16 -12 3 14 -14 27 -12 55 5 55 5
0 9 5 9 11 0 6 -12 1 -26 -10 -22 -17 -30 -19 -48 -9 -11 6 -23 11 -26 10 -3
-1 -6 17 -6 41 -3 80 -4 87 -14 87 -5 0 -10 -7 -10 -15 0 -18 -36 -20 -76 -5
-46 18 -36 5 16 -21 35 -17 52 -32 56 -49 4 -14 13 -36 21 -48 13 -22 13 -26
-8 -45 -34 -33 -72 -57 -89 -57 -9 0 -33 37 -60 90 -24 49 -57 104 -73 122
-33 38 -89 151 -91 185 0 13 -5 23 -9 23 -5 0 -5 5 -1 11 3 6 -2 26 -12 44
-10 19 -15 37 -11 41 12 12 55 -13 62 -36 5 -16 10 -18 19 -11 7 6 16 8 19 4
4 -3 7 -1 7 5 0 7 6 12 14 12 14 0 30 29 21 38 -3 3 -5 0 -5 -6 0 -20 -27 -13
-33 8 -3 11 -1 18 3 15 5 -3 11 8 15 25 4 16 13 30 21 30 8 0 14 5 14 10 0 16
-12 12 -38 -12 l-23 -23 11 29 c7 20 8 32 0 40 -7 7 -10 4 -11 -10 0 -10 -3
-13 -6 -6 -2 6 -9 10 -14 6 -15 -9 -10 28 7 47 9 10 17 29 18 42 0 14 4 23 8
21 4 -2 8 8 10 23 3 27 28 46 28 21 1 -19 37 -64 46 -56 3 4 -8 25 -25 47 -17
22 -31 43 -30 48 1 4 1 19 0 32 -1 17 -5 21 -17 17 -12 -4 -14 -1 -9 14 5 15
0 22 -21 30 -26 10 -26 11 -9 30 22 24 9 27 -17 3 -10 -9 -18 -11 -18 -5 0 6
6 12 13 15 9 4 9 7 0 18 -18 18 -20 13 -27 -69 -3 -40 -8 -78 -12 -84 -4 -5
-1 -13 5 -17 16 -10 -4 -61 -24 -61 -15 0 -18 -22 -19 -142 -2 -69 -46 44 -47
117 0 69 14 220 21 220 9 0 5 82 -3 87 -9 6 -8 11 3 19 11 8 12 12 3 16 -10 3
-9 9 3 21 11 10 13 17 5 20 -7 2 -8 9 -1 22 5 10 7 27 3 37 -6 16 -5 17 12 3
17 -14 18 -13 13 20 -3 19 -2 45 3 57 5 13 4 23 -1 25 -6 2 1 45 16 97 14 51
23 99 20 107 -3 8 -1 14 3 14 5 0 11 7 14 14 4 10 1 13 -8 9 -8 -3 -20 -24
-26 -47 -6 -22 -14 -45 -18 -51 -7 -9 -29 -79 -36 -114 -2 -9 -8 -29 -14 -44
-6 -15 -10 -31 -10 -35 4 -21 -3 -34 -23 -42 -18 -7 -19 -9 -5 -9 15 -1 17 -7
11 -38 -4 -21 -10 -45 -15 -54 -4 -9 -5 -25 -2 -37 3 -12 1 -22 -5 -22 -6 0
-8 -19 -5 -50 3 -32 0 -56 -7 -65 -7 -8 -9 -15 -5 -15 4 0 2 -7 -5 -15 -11
-13 -10 -14 4 -9 34 13 14 -8 -26 -27 -28 -13 -34 -18 -16 -15 14 3 33 9 42
12 9 3 16 1 16 -5 0 -6 -5 -11 -11 -11 -5 0 -7 -5 -4 -10 3 -6 -5 -14 -19 -20
-35 -13 -33 -21 4 -13 49 9 38 -23 -17 -51 -77 -38 -90 -40 -89 -14 1 15 13
29 36 41 34 18 34 19 5 12 -16 -4 -41 -9 -55 -12 l-25 -4 24 25 c14 14 19 26
13 26 -7 0 -12 9 -12 21 0 11 -4 18 -9 15 -4 -3 -6 10 -4 29 2 19 -1 35 -6 35
-6 0 -8 -7 -5 -15 4 -8 1 -15 -5 -15 -14 0 -15 27 -1 35 6 3 7 17 4 31 -5 18
-1 29 12 39 12 9 14 14 6 15 -10 0 -10 5 -1 21 7 13 7 19 1 15 -6 -3 -13 -2
-16 3 -4 5 6 13 21 19 27 9 27 9 6 16 -22 7 -22 8 -7 32 9 13 12 24 7 24 -6 0
-8 11 -5 25 2 15 0 25 -7 25 -7 0 -9 5 -6 10 4 6 10 8 15 5 11 -7 17 14 16 57
-1 20 2 34 6 32 4 -3 8 8 8 25 0 16 6 32 13 34 7 3 4 6 -6 6 -17 1 -17 2 -2
17 9 9 14 23 11 30 -3 8 1 14 10 14 10 0 12 5 7 13 -17 27 -12 37 15 31 15 -4
24 -3 20 1 -4 5 -2 15 4 24 10 13 10 14 -2 4 -24 -21 -43 -17 -30 7 6 11 16
18 21 14 6 -3 5 4 -3 16 -11 18 -11 23 3 33 9 7 14 17 12 23 -2 6 7 41 21 77
13 36 22 67 20 70 -2 2 2 10 11 17 8 7 15 18 15 26 0 7 11 30 25 50 14 20 25
43 25 50 0 7 5 14 11 16 5 2 11 12 13 21 1 10 9 23 17 28 8 5 10 9 6 9 -4 0 0
9 10 19 10 11 31 44 47 73 15 29 45 70 66 90 21 20 36 38 34 41 -2 2 14 23 36
47 22 24 40 47 40 51 0 5 12 12 26 15 16 4 23 12 20 20 -3 8 -1 14 4 14 5 0
32 23 60 50 40 39 57 49 72 44 13 -4 18 -2 14 5 -9 13 29 51 52 51 14 0 15 2
2 10 -17 11 -10 13 14 4 24 -9 19 -20 -14 -34 -17 -7 -32 -16 -35 -19 -6 -11
72 -7 82 3 5 5 1 7 -9 3 -41 -15 -14 6 37 29 31 13 58 31 62 39 3 10 12 13 25
9 14 -4 18 -2 14 5 -8 12 18 44 28 34 3 -3 13 0 21 7 26 21 109 57 123 53 6
-3 12 0 12 7 0 6 4 9 9 6 5 -4 11 -1 13 5 2 6 17 12 33 12 31 0 59 19 47 33
-4 5 0 3 9 -4 12 -9 20 -9 35 1 10 7 34 14 53 15 19 2 39 7 45 11 6 5 29 10
51 12 22 1 46 7 53 12 6 5 12 6 12 2 0 -4 7 -2 15 5 9 7 18 10 21 7 3 -3 44
10 92 29 98 38 124 43 72 13 -19 -11 -26 -17 -15 -14 90 31 114 35 132 22 7
-5 24 -2 40 7 33 18 43 19 43 6z m1800 -1295 c-7 -8 -18 -15 -26 -15 -7 0 -16
-4 -19 -10 -4 -6 6 -7 25 -4 36 8 38 -1 8 -26 l-23 -18 30 4 30 5 -25 -16 -25
-16 29 6 c26 6 28 4 17 -9 -11 -13 -11 -16 0 -16 8 0 3 -9 -11 -20 -28 -22
-24 -25 17 -10 l28 10 -30 -25 -30 -26 30 11 29 11 -19 -22 c-18 -20 -18 -22
-2 -16 25 9 21 -8 -5 -22 -22 -11 -22 -11 -1 -6 37 10 35 -12 -3 -36 -29 -18
-38 -19 -44 -8 -6 8 -4 16 3 21 8 5 9 8 1 8 -20 0 -24 39 -6 51 15 10 15 10 0
5 -21 -6 -23 4 -5 23 8 10 9 12 0 7 -18 -10 -36 32 -29 66 4 20 2 27 -6 22 -7
-5 -9 0 -6 14 4 12 2 20 -3 16 -5 -3 -9 2 -9 10 0 18 13 27 54 37 17 4 33 7
35 8 2 1 -2 -6 -9 -14z m60 -280 c-7 -8 -18 -15 -26 -15 -7 0 -16 -5 -20 -12
-5 -8 -2 -9 9 -5 55 22 53 22 37 2 -14 -17 -13 -18 15 -11 l30 7 -25 -21 c-15
-12 -18 -18 -7 -14 9 3 17 1 17 -4 0 -6 -8 -16 -17 -21 -16 -9 -16 -10 -1 -11
16 0 19 -15 5 -37 -4 -6 -1 -14 5 -17 9 -3 7 -10 -7 -21 -20 -17 -20 -17 4
-10 20 6 23 4 18 -9 -4 -9 -1 -16 5 -16 9 0 9 -3 0 -12 -17 -17 -15 -31 3 -24
8 3 15 1 15 -3 0 -5 -7 -11 -15 -15 -21 -8 -19 -29 3 -22 13 5 12 2 -4 -11
-12 -10 -30 -23 -40 -30 -16 -10 -13 -10 14 -3 33 9 41 3 20 -18 -7 -7 -8 -12
-2 -12 19 0 8 -42 -15 -60 l-23 -17 33 5 34 4 -29 -25 c-25 -22 -26 -25 -10
-29 17 -3 16 -5 -6 -26 -15 -14 -19 -21 -8 -17 32 13 12 -30 -23 -47 -44 -22
-49 -22 -49 1 0 11 -4 23 -10 26 -17 10 -11 21 18 33 l27 12 -27 -5 c-42 -8
-36 20 10 44 40 22 39 27 -2 11 -30 -11 -36 3 -8 19 9 6 11 11 5 11 -18 0 -16
20 2 20 8 0 15 4 15 10 0 5 -7 7 -15 4 -9 -4 -15 0 -15 10 0 9 6 16 14 16 8 0
18 5 22 12 5 8 0 9 -14 6 -26 -7 -29 10 -4 28 16 13 16 14 0 8 -24 -8 -22 1 5
26 19 18 19 20 3 14 -15 -6 -18 -4 -13 9 3 8 1 18 -6 21 -9 3 -8 8 3 15 12 8
12 11 1 11 -9 0 -12 9 -9 30 3 17 0 30 -6 30 -6 0 0 9 14 20 24 18 24 19 3 14
-19 -5 -22 -2 -20 20 1 14 11 32 22 41 20 16 20 16 -2 6 -30 -15 -38 -14 -24
3 9 11 9 15 -1 18 -15 5 49 48 71 48 11 0 11 -3 1 -15z m-3731 -722 c6 -31 10
-57 8 -58 -1 -1 -31 -12 -67 -25 -74 -26 -110 -33 -110 -19 0 10 19 19 115 54
27 10 45 20 39 22 -6 2 -41 -7 -76 -21 -65 -24 -65 -24 -64 -3 1 16 15 25 63
41 58 20 88 36 66 36 -5 0 -35 -9 -66 -19 -53 -19 -57 -19 -57 -3 0 12 16 23
53 34 82 26 83 25 96 -39z m3711 -98 c0 -8 -4 -15 -8 -15 -5 0 -17 -7 -28 -16
-18 -14 -18 -15 6 -8 l25 7 -19 -22 c-17 -18 -17 -21 -3 -15 24 9 21 -8 -3
-24 -22 -13 -27 -38 -8 -44 6 -2 -3 -14 -20 -26 -17 -13 -29 -29 -26 -36 3 -7
-5 -18 -18 -24 l-23 -12 25 5 25 6 -24 -21 c-13 -11 -21 -23 -17 -27 3 -3 -3
-12 -13 -19 -22 -16 -36 -58 -17 -51 11 4 11 0 2 -19 -6 -13 -16 -22 -23 -19
-7 2 -15 -1 -19 -7 -4 -7 -3 -8 4 -4 7 4 12 3 12 -3 0 -5 -4 -13 -10 -16 -20
-12 -10 -27 16 -22 23 4 24 3 11 -10 -12 -12 -19 -13 -36 -4 -16 9 -27 8 -48
-4 -26 -15 -16 -14 22 1 8 3 15 1 15 -6 0 -6 5 -8 10 -5 6 3 10 1 10 -4 0 -6
-6 -11 -12 -11 -7 0 -27 -14 -45 -30 -23 -20 -30 -35 -27 -52 3 -18 1 -17 -10
7 -9 17 -15 24 -16 18 0 -18 -20 -16 -20 2 0 8 5 15 12 15 6 0 8 3 5 7 -4 3 2
13 13 20 11 8 18 18 15 23 -3 4 10 22 28 40 24 24 26 30 10 21 -15 -8 -23 -8
-23 -1 0 5 3 10 8 10 4 0 18 9 32 20 l25 19 -25 -5 c-17 -3 -13 1 13 13 21 10
37 25 37 35 0 9 8 21 18 27 15 9 14 10 -5 8 -13 -1 -23 -4 -23 -8 0 -4 -10 -9
-22 -12 -22 -6 -22 -6 2 13 14 11 29 20 33 20 5 0 5 5 2 10 -4 6 -12 8 -18 5
-7 -3 -4 0 7 7 10 7 28 21 40 31 l21 18 -22 -10 c-66 -32 -42 18 27 56 25 14
34 22 20 18 -14 -4 -36 -9 -50 -11 l-25 -5 24 20 c21 19 21 21 5 21 -16 1 -14
5 11 25 28 23 29 24 5 18 -24 -5 -24 -5 -8 12 20 21 88 63 106 64 6 1 12 -6
12 -14z m150 -19 c0 -8 -5 -18 -11 -21 -6 -4 -8 -13 -5 -21 3 -7 1 -16 -3 -19
-5 -2 -12 -20 -15 -39 -5 -28 -13 -36 -51 -51 -25 -9 -47 -21 -50 -25 -3 -5
13 -1 37 10 41 18 67 18 38 0 -8 -6 -12 -10 -8 -10 9 0 -14 -58 -64 -157 -41
-81 -42 -82 -110 -112 -37 -16 -68 -27 -68 -25 0 14 45 61 73 76 18 9 25 17
17 18 -9 0 -21 -5 -28 -12 -7 -7 -12 -8 -12 -4 0 14 41 76 51 76 4 0 6 6 3 14
-3 8 3 22 14 32 11 9 18 23 15 31 -4 9 3 16 17 20 14 4 18 8 10 13 -9 6 -9 13
1 31 7 13 14 26 14 29 13 53 21 63 61 81 24 10 44 20 44 23 0 3 -16 -2 -36
-10 -20 -8 -38 -13 -40 -11 -12 12 14 41 50 58 50 23 56 23 56 5z m-3630 -117
c-32 -27 -16 -32 18 -6 7 5 16 7 19 3 4 -4 1 -11 -7 -16 -12 -7 -11 -10 4 -16
18 -7 18 -8 0 -21 -17 -12 -16 -13 6 -13 23 0 23 0 4 -15 -18 -14 -17 -15 11
-10 26 5 24 3 -15 -19 -52 -29 -50 -32 10 -11 24 8 45 13 48 11 5 -5 -81 -50
-118 -61 -25 -8 -25 -8 -6 14 16 17 16 21 4 21 -10 0 -14 8 -13 24 2 19 -1 23
-13 19 -11 -5 -14 -2 -9 11 4 11 1 19 -10 23 -14 6 -14 8 3 21 18 13 17 14
-13 10 -28 -4 -31 -2 -20 10 15 19 86 50 112 51 17 0 14 -5 -15 -30z m-110
-106 c11 -23 20 -45 20 -47 0 -2 -33 -16 -72 -31 -40 -15 -95 -36 -122 -46
-56 -22 -86 -24 -41 -4 43 20 4 19 -43 -1 -59 -25 -155 -55 -160 -49 -3 3 9 8
26 11 18 4 32 11 32 16 0 6 -8 7 -17 3 -10 -4 -40 -13 -68 -21 -27 -8 -62 -21
-77 -29 -14 -8 -36 -15 -47 -15 -12 0 -21 -4 -21 -8 0 -4 -21 -13 -46 -20 -25
-7 -65 -21 -88 -31 -60 -27 -86 -34 -86 -22 0 5 15 13 33 17 17 3 57 18 87 32
92 42 194 82 210 82 8 0 23 7 33 14 10 8 49 24 87 36 39 12 70 27 70 31 0 5
-12 6 -27 3 -27 -7 -167 -61 -228 -88 -16 -8 -48 -19 -70 -26 -22 -6 -53 -18
-70 -25 -16 -7 -48 -20 -70 -29 -22 -8 -80 -31 -130 -50 -49 -19 -108 -37
-130 -41 l-40 -6 47 20 c27 10 83 31 125 46 43 15 102 38 132 52 58 27 125 52
155 58 10 3 28 10 40 18 11 7 48 21 81 31 33 10 74 24 90 32 48 22 177 70 210
78 16 4 32 11 35 14 6 9 90 39 107 39 7 0 22 -20 33 -44z m224 -48 c-4 -8 -9
-15 -13 -15 -4 0 -16 -7 -27 -15 -18 -14 -17 -14 9 -5 36 13 50 13 42 0 -3 -6
4 -10 17 -11 21 0 22 -1 5 -12 -47 -30 -53 -38 -24 -27 46 16 55 11 17 -10
-38 -21 -28 -26 16 -10 42 16 39 4 -5 -21 -47 -26 -48 -39 -2 -15 35 19 51 20
51 5 0 -5 -4 -8 -9 -5 -5 3 -14 -1 -21 -9 -7 -8 -18 -15 -26 -15 -7 0 -16 -5
-19 -11 -4 -5 10 -3 30 5 48 20 61 20 44 -1 -13 -15 -11 -16 14 -9 28 7 28 6
12 -18 -16 -24 -16 -25 12 -28 l28 -3 -34 -22 -35 -21 31 -30 c25 -23 38 -28
65 -24 l33 5 -25 -21 -25 -21 34 9 c44 12 51 6 14 -14 l-28 -16 40 6 40 5 -25
-22 c-20 -18 -21 -21 -5 -15 47 19 59 17 28 -4 -18 -12 -33 -24 -33 -26 0 -2
19 3 42 12 54 19 60 11 11 -15 -42 -22 -34 -27 15 -10 50 17 61 4 17 -20 -22
-12 -32 -20 -22 -17 49 15 67 17 67 8 0 -5 -10 -12 -22 -15 -12 -4 -19 -9 -16
-13 4 -3 21 -2 37 4 32 11 40 5 19 -16 -10 -10 -5 -11 22 -6 34 6 34 6 15 -10
-20 -17 -19 -17 8 -11 33 7 28 -11 -7 -25 -13 -5 -2 -7 32 -3 28 3 52 3 52 0
0 -4 -17 -15 -37 -26 -45 -24 -40 -26 15 -7 51 18 64 8 20 -16 l-33 -17 37 2
c20 1 34 5 31 10 -6 10 9 9 26 -2 11 -7 7 -12 -15 -25 l-29 -16 30 6 c17 4 38
11 48 16 10 5 21 8 23 5 3 -2 -14 -14 -38 -27 -37 -19 -39 -21 -13 -16 17 3
41 9 55 12 22 7 24 6 11 -9 -7 -9 -20 -17 -27 -17 -8 0 -14 -4 -14 -9 0 -6 12
-6 32 0 41 11 47 5 11 -15 -36 -20 -23 -20 24 -1 19 8 41 15 47 15 16 -1 -36
-40 -53 -40 -8 0 -12 -3 -8 -6 3 -3 25 0 49 8 25 9 52 12 63 8 18 -7 15 -10
-19 -25 -21 -9 -36 -18 -33 -21 3 -3 22 2 42 10 53 23 78 19 31 -4 -43 -22
-62 -37 -31 -26 11 5 40 10 65 12 l45 4 -30 -20 -30 -21 30 7 c17 3 39 8 50
11 17 4 17 1 -5 -17 -14 -12 -18 -20 -10 -17 8 2 25 7 38 11 12 4 22 3 22 -2
0 -5 -10 -14 -22 -20 -18 -9 -10 -10 42 -6 l65 5 -35 -21 c-34 -20 -28 -21 30
-4 22 6 28 -11 8 -20 -15 -7 31 1 59 10 13 4 11 0 -7 -15 -30 -25 -22 -26 27
-6 45 19 53 19 28 -2 -19 -15 -19 -15 7 -9 14 3 34 9 45 12 10 3 5 -3 -12 -15
-36 -25 -34 -25 29 -6 27 8 52 13 54 10 3 -3 1 -5 -4 -5 -5 0 -20 -9 -34 -20
l-25 -20 38 15 c21 9 42 13 47 10 6 -4 10 -2 10 4 0 5 9 9 20 8 20 -1 20 -2
-2 -20 l-23 -18 25 7 c14 5 38 7 53 6 15 0 40 3 55 9 l27 10 -30 -26 c-21 -18
-24 -25 -11 -20 11 3 40 10 65 15 25 6 56 12 69 15 33 8 27 -11 -8 -25 -50
-21 -26 -24 32 -4 64 22 76 25 109 29 15 1 37 6 50 9 13 3 -2 -7 -34 -23 -62
-31 -85 -47 -52 -35 49 16 153 58 179 71 34 18 76 26 76 16 0 -5 -25 -21 -55
-37 -31 -16 -54 -31 -51 -33 2 -2 22 5 44 16 22 11 42 17 46 14 3 -4 6 -1 6 5
0 6 13 10 30 10 37 -1 30 -13 -16 -28 -19 -7 -33 -14 -31 -16 5 -5 67 17 139
50 31 14 60 26 63 26 4 0 36 14 72 30 35 17 67 30 71 30 4 0 28 11 53 24 25
14 84 41 130 60 46 19 102 43 124 54 22 10 75 34 117 53 43 19 78 38 78 43 0
4 -8 5 -17 1 -54 -22 -113 -43 -113 -39 0 3 28 18 62 33 57 27 63 28 74 13 10
-14 15 -15 25 -4 10 9 10 12 1 12 -7 0 -12 4 -12 10 0 5 6 7 13 4 7 -2 22 4
32 16 10 11 23 20 28 20 6 0 2 -9 -8 -20 -18 -20 -18 -21 1 -13 26 9 50 33 34
33 -7 0 -2 9 11 20 l24 20 -30 -11 c-16 -5 -35 -15 -42 -20 -6 -6 -19 -9 -28
-7 -9 2 19 22 63 44 71 38 80 41 102 28 14 -7 21 -13 16 -14 -5 0 -7 -3 -4 -6
4 -3 17 -1 30 6 17 8 15 5 -7 -12 -31 -24 -33 -25 -116 -75 -30 -18 -61 -37
-69 -42 -30 -21 24 2 73 31 26 15 51 27 55 26 13 -4 52 13 52 22 0 5 23 33 51
62 28 29 73 82 100 117 37 48 62 70 106 91 32 16 54 29 50 29 -4 1 -26 -8 -48
-20 -23 -11 -43 -19 -45 -16 -10 10 76 75 119 90 54 18 60 10 16 -27 -17 -14
-26 -26 -20 -26 26 0 -6 -32 -50 -52 -27 -11 -48 -23 -45 -25 2 -2 21 3 41 11
34 15 36 15 24 0 -7 -8 -29 -24 -48 -35 -33 -18 -27 -19 16 -2 15 6 14 4 -2
-18 -10 -14 -53 -40 -96 -58 -43 -18 -83 -39 -90 -47 -6 -7 22 2 62 20 41 19
76 33 78 31 9 -10 -79 -100 -114 -116 -22 -11 -29 -16 -16 -13 16 4 21 3 17
-5 -4 -6 -14 -11 -22 -11 -8 0 -13 -4 -12 -10 4 -15 -159 -157 -205 -179 -23
-10 -64 -29 -92 -41 -27 -11 -59 -25 -70 -30 -11 -6 -38 -16 -60 -24 -39 -13
-272 -116 -405 -178 -216 -102 -261 -120 -327 -132 -40 -7 -73 -10 -73 -7 0 3
24 16 53 28 169 69 213 91 145 73 -18 -6 -65 -26 -103 -45 -39 -19 -76 -35
-83 -35 -7 0 -26 -7 -43 -15 -36 -19 -63 -8 -28 11 38 21 14 16 -51 -10 -33
-14 -60 -20 -60 -15 0 5 5 9 12 9 6 0 8 3 5 6 -4 4 -12 2 -19 -3 -7 -6 -29
-14 -48 -17 l-35 -7 23 18 c12 10 49 29 83 42 33 13 58 25 55 28 -6 6 -44 -7
-133 -48 -50 -23 -74 -28 -122 -26 -33 1 -62 5 -65 8 -9 9 125 68 164 72 19 2
1 4 -40 4 -41 0 -61 -2 -45 -4 27 -4 21 -9 -55 -39 -47 -19 -92 -31 -100 -28
-8 4 -30 6 -47 5 -44 -3 -41 5 10 27 64 29 79 34 117 39 47 7 51 13 7 13 -19
0 -57 -9 -84 -21 -86 -37 -124 -47 -149 -40 -24 6 -21 8 29 29 30 13 62 20 73
16 16 -5 16 -4 4 5 -12 8 -7 11 21 11 37 0 97 17 113 31 5 5 -6 4 -25 -2 -19
-6 -54 -12 -79 -13 -25 -1 -54 -7 -65 -13 -49 -27 -137 -52 -157 -44 -19 7
-15 11 31 32 29 13 48 25 43 27 -6 2 -34 -9 -63 -23 l-52 -27 -61 18 c-75 22
-74 21 -50 39 17 13 16 14 -14 4 -25 -9 -36 -9 -45 0 -8 8 -2 12 21 17 17 4
29 10 26 15 -3 5 -19 2 -35 -7 -17 -8 -35 -14 -41 -12 -6 2 13 16 43 31 29 14
56 24 58 21 3 -3 0 -9 -7 -13 -7 -4 10 -7 38 -7 27 1 45 3 40 4 -7 3 -7 9 1
19 11 12 8 13 -17 8 -22 -5 -26 -4 -14 4 11 9 4 10 -30 5 -42 -6 -44 -5 -25 9
19 15 18 15 -20 11 -30 -3 -35 -1 -20 5 15 8 9 10 -30 11 -46 1 -49 2 -31 15
18 14 17 15 -23 13 -25 -1 -46 4 -50 11 -5 7 -11 12 -15 12 -23 -3 -27 2 -6 9
20 6 16 7 -20 7 l-45 0 33 -15 c32 -16 42 -32 19 -32 -7 0 -28 -8 -47 -18 -51
-28 -72 -15 -24 14 21 13 33 24 27 24 -21 0 -15 31 7 37 25 7 27 23 3 22 -20
0 -63 -17 -49 -18 5 -1 1 -11 -10 -23 -10 -12 -13 -18 -6 -14 7 4 21 5 30 1
13 -6 10 -10 -18 -20 -43 -16 -60 -18 -60 -6 0 5 6 11 13 14 6 2 0 2 -15 0
-14 -2 -29 1 -33 6 -7 12 40 34 70 33 19 -1 19 -1 1 10 -15 8 -27 7 -52 -7
-18 -9 -38 -15 -46 -13 -8 3 0 11 20 22 17 9 32 19 32 22 0 2 -13 -2 -30 -11
-32 -17 -66 -20 -74 -6 -9 13 69 41 114 41 21 0 42 5 45 11 10 16 -97 4 -135
-16 -39 -20 -64 -15 -110 24 l-34 29 34 21 c38 23 60 27 60 10 0 -5 -4 -7 -10
-4 -5 3 -10 2 -10 -3 0 -6 -11 -13 -25 -16 -14 -4 -25 -11 -25 -16 0 -6 18 -1
40 10 46 24 45 23 62 8 31 -28 56 -37 84 -28 17 5 22 9 11 9 -10 1 -15 6 -11
12 4 7 -3 10 -17 9 -42 -4 -56 1 -34 10 17 7 16 9 -10 9 -23 1 -27 4 -15 11
35 23 -68 14 -114 -9 -30 -16 -43 -18 -59 -9 -19 10 -17 12 19 24 21 8 40 14
42 14 2 0 0 5 -4 11 -3 6 -9 7 -13 3 -10 -14 -73 -34 -84 -27 -6 3 12 17 38
30 l49 23 22 -21 c19 -18 27 -19 51 -11 l28 10 -34 1 c-33 1 -34 2 -15 16 18
15 18 16 -6 14 -39 -2 -50 0 -50 10 0 5 10 12 23 14 12 2 2 5 -23 7 -37 2 -41
3 -20 9 23 7 22 8 -12 12 -37 5 -51 -4 -25 -14 9 -4 8 -8 -3 -17 -13 -10 -13
-11 3 -6 19 6 47 -2 47 -14 0 -16 -87 -43 -106 -32 -15 9 -14 11 12 26 l29 15
-35 -5 -35 -5 33 18 c17 9 32 21 32 26 0 5 -6 4 -14 -2 -8 -7 -29 -16 -47 -21
-28 -8 -36 -6 -65 19 -25 22 -30 32 -21 41 9 10 7 11 -10 6 -27 -9 -39 9 -16
24 15 8 12 9 -11 4 -25 -6 -28 -4 -23 10 4 11 1 16 -11 17 -10 0 -12 3 -4 6 6
2 12 9 12 14 0 6 -8 5 -20 -1 -11 -6 -25 -8 -32 -4 -6 4 12 15 41 26 28 11 51
23 51 28 0 4 -23 -1 -51 -11 -28 -11 -57 -18 -63 -16 -6 2 13 12 41 21 57 19
71 31 48 40 -8 3 -15 1 -15 -5 0 -6 -7 -9 -15 -5 -8 3 -15 2 -15 -3 0 -12 -73
-32 -83 -22 -8 8 79 51 103 51 6 0 8 4 5 10 -4 6 -21 2 -46 -10 -21 -11 -39
-18 -39 -14 0 4 -6 2 -12 -3 -12 -8 -24 -9 -45 -4 -5 2 10 11 32 22 22 11 31
17 20 13 -11 -3 -38 -8 -60 -11 l-40 -4 30 15 c46 22 128 57 129 54 7 -15 91
-112 126 -148 74 -74 76 -78 54 -96 -18 -14 -18 -15 4 -4 12 6 26 9 31 6 4 -3
21 -1 37 4 l29 8 -35 1 c-33 2 -34 2 -16 16 19 14 18 15 -15 16 -30 0 -32 1
-11 9 32 13 27 24 -8 17 -16 -4 -32 -2 -35 3 -3 6 3 10 14 10 12 0 21 4 21 8
0 5 -15 7 -32 6 -18 -2 -25 -1 -15 2 25 8 11 23 -16 17 -21 -4 -22 -4 -3 11
19 15 19 16 2 16 -16 0 -17 2 -5 16 12 15 11 16 -11 9 -25 -8 -25 -8 -6 14 19
21 19 21 -8 21 -22 0 -26 3 -21 19 5 16 2 18 -17 13 -21 -5 -22 -4 -8 13 14
17 13 18 -7 13 -25 -7 -30 1 -12 19 7 7 3 12 -15 17 -17 4 -23 11 -20 21 4 10
0 15 -12 16 -11 0 -14 3 -6 6 21 8 13 21 -10 16 -22 -5 -22 -4 2 16 30 25 21
27 -23 5 l-32 -17 25 28 25 28 -23 -6 c-18 -4 -21 -3 -12 8 13 16 -3 30 -22
19 -7 -4 -4 2 6 14 19 22 19 22 0 22 -16 0 -17 2 -4 10 12 8 10 10 -8 10 -35
0 -22 22 29 47 53 26 81 29 73 8z m-163 -72 c7 -16 21 -39 31 -52 17 -23 17
-24 1 -38 -17 -13 -16 -14 3 -8 17 4 26 -2 42 -27 l21 -33 -47 -16 c-92 -32
-152 -56 -159 -62 -3 -4 -13 -7 -22 -7 -9 1 16 16 54 35 86 42 81 43 -28 5
-153 -54 -125 -31 47 37 107 43 147 63 96 48 -14 -3 -74 -26 -135 -50 -114
-45 -194 -69 -201 -62 -3 2 17 12 43 22 84 32 115 46 111 50 -5 5 -107 -27
-161 -50 -22 -9 -44 -14 -50 -12 -6 2 26 18 72 36 83 34 108 52 36 26 -63 -22
-75 -16 -20 10 28 13 42 24 32 24 -10 1 -31 -6 -46 -14 -16 -8 -39 -16 -52
-18 -46 -9 -108 -30 -105 -36 2 -3 -12 -7 -33 -8 l-36 -2 40 19 c22 11 46 19
54 20 8 0 32 9 55 19 78 36 281 119 309 126 27 7 47 25 28 25 -6 0 -73 -24
-148 -54 -76 -30 -183 -71 -238 -92 -55 -20 -127 -47 -160 -59 -33 -12 -88
-34 -122 -49 -34 -14 -66 -26 -70 -26 -19 0 40 29 127 63 163 63 472 183 540
209 36 15 68 27 71 27 3 1 12 -11 20 -26z m2870 -757 c-18 -13 -60 -34 -94
-47 -34 -13 -102 -43 -152 -67 -49 -24 -119 -55 -154 -68 -36 -14 -86 -36
-111 -50 -61 -35 -127 -60 -175 -68 l-40 -6 55 26 c30 15 61 27 68 27 6 0 12
3 12 7 0 3 24 17 53 29 28 13 81 36 117 52 36 15 122 52 191 82 69 30 144 61
167 68 23 7 42 16 42 20 0 7 20 15 44 18 6 0 -5 -10 -23 -23z"/>
<path d="M3334 3888 c14 -46 14 -66 0 -61 -8 3 -16 -2 -20 -10 -6 -16 -14 -16
-58 2 -16 6 -35 10 -42 7 -8 -3 -11 0 -8 8 5 14 -36 36 -66 36 -11 0 -20 7
-20 15 0 19 -23 15 -32 -6 -3 -9 -16 -19 -28 -22 -12 -3 -19 -3 -16 0 7 7 -13
33 -25 33 -5 0 -6 -6 -3 -14 4 -11 0 -13 -15 -9 -26 7 -47 -10 -54 -42 -3 -19
0 -25 13 -25 9 0 22 -12 28 -26 10 -20 17 -24 33 -19 16 5 19 4 14 -6 -6 -9
-3 -11 8 -6 27 10 19 -1 -10 -16 -16 -8 -34 -12 -40 -10 -7 3 -13 -2 -13 -11
0 -9 0 -19 -1 -23 0 -4 4 -9 10 -11 7 -2 8 3 4 14 -4 11 -3 15 4 11 6 -4 14
-1 16 5 4 8 6 7 6 -4 1 -9 6 -20 13 -24 7 -5 9 -2 5 8 -3 9 0 21 6 27 17 17
31 13 17 -4 -9 -11 -9 -15 -1 -15 7 0 24 -11 39 -25 15 -14 28 -21 30 -15 2 5
12 10 23 10 17 0 18 3 9 21 -7 11 -9 27 -6 35 3 9 1 12 -4 9 -6 -3 -10 0 -10
8 0 19 36 28 129 32 40 2 78 8 84 14 5 5 16 7 24 4 13 -5 13 -2 4 15 -15 29
-14 42 5 42 14 0 14 3 4 15 -7 8 -20 15 -29 15 -14 1 -14 2 2 14 24 18 21 26
-9 26 -23 0 -25 -3 -20 -22z"/>
<path d="M2881 3811 c0 -8 -8 -11 -21 -8 -11 3 -23 1 -26 -4 -3 -5 -22 -9 -42
-9 -20 0 -42 -4 -47 -8 -17 -12 -47 -63 -41 -70 4 -3 35 -6 71 -6 60 -1 67 1
90 28 20 24 27 27 40 16 8 -7 25 -10 39 -6 13 3 27 1 29 -4 3 -6 4 -5 3 2 -2
7 -15 13 -30 13 -18 -1 -25 3 -22 12 3 8 -2 13 -14 13 -11 0 -20 9 -23 23 -2
12 -5 16 -6 8z"/>
<path d="M2544 3765 c-14 -14 -22 -30 -18 -37 4 -6 3 -8 -3 -5 -5 3 -20 -7
-32 -23 -18 -25 -25 -28 -45 -20 -32 12 -56 7 -74 -16 -10 -13 -16 -15 -19 -7
-6 15 -42 -6 -93 -54 -19 -18 -39 -33 -44 -33 -11 0 -35 -31 -36 -48 0 -6 6
-11 13 -10 7 2 11 -6 9 -19 -2 -15 2 -23 11 -23 10 0 14 8 12 25 -2 24 -1 25
16 9 18 -16 19 -16 15 15 -2 23 2 35 17 46 16 11 23 12 29 2 7 -11 12 -3 9 16
0 4 6 7 15 7 9 0 22 6 28 14 16 20 89 9 81 -11 -4 -12 0 -14 17 -10 29 8 48
-9 48 -42 1 -21 2 -23 10 -9 6 9 18 14 28 11 26 -6 48 22 32 42 -15 18 1 20
18 3 9 -9 12 -9 12 1 0 10 3 11 13 2 18 -14 38 5 29 28 -5 14 -4 14 12 2 13
-11 14 -16 4 -22 -10 -7 -10 -11 1 -21 8 -7 11 -8 8 -2 -4 7 1 15 10 18 14 6
13 10 -7 31 -13 14 -20 28 -16 32 4 5 14 -1 22 -11 17 -24 25 -18 17 12 -4 17
-10 21 -25 16 -17 -5 -18 -3 -9 14 16 30 14 46 -8 57 -10 6 -33 18 -50 28 -31
17 -32 17 -57 -8z"/>
<path d="M3875 3780 c-4 -6 -10 -8 -15 -5 -15 9 -29 -27 -19 -52 5 -13 4 -25
-1 -28 -6 -4 -6 -14 1 -26 6 -11 8 -27 5 -35 -3 -8 -1 -14 5 -14 5 0 15 14 20
30 17 49 34 34 32 -27 -1 -7 4 -13 9 -13 6 0 4 -7 -3 -17 -13 -14 -12 -15 6
-6 11 5 33 8 48 7 l29 -3 -23 20 c-12 10 -28 19 -36 19 -13 0 -15 5 -15 40 0
11 0 22 1 26 1 3 16 -7 35 -21 25 -19 35 -22 39 -13 3 9 7 6 12 -7 5 -11 14
-27 22 -37 8 -9 13 -23 11 -32 -2 -10 10 -25 30 -37 25 -17 31 -18 26 -5 -3 8
-14 18 -25 21 -20 7 -26 25 -8 25 23 0 47 -21 53 -46 6 -24 8 -25 20 -9 9 12
15 14 20 7 8 -13 -23 -31 -43 -24 -10 3 -12 0 -8 -13 10 -25 -1 -37 -23 -25
-27 14 -36 -6 -14 -31 9 -10 25 -19 36 -19 10 0 18 -5 18 -11 0 -5 5 -7 12 -3
8 5 9 2 5 -10 -5 -12 -3 -16 5 -14 16 6 23 58 9 58 -16 0 -13 33 4 56 14 18
14 18 15 -8 0 -15 5 -30 10 -33 6 -4 8 -11 5 -16 -10 -15 5 -49 21 -49 8 0 17
-7 20 -15 4 -8 10 -12 15 -9 5 3 4 14 -2 26 -10 18 -8 19 13 14 12 -3 17 -3
11 0 -20 9 -15 21 9 27 11 3 30 -1 42 -9 11 -7 28 -14 38 -14 10 0 24 -12 32
-27 11 -20 15 -23 16 -10 0 9 -8 25 -19 35 -35 33 -96 77 -107 77 -18 0 -43
25 -38 38 2 7 -9 21 -26 32 -16 11 -30 25 -30 32 0 6 -22 30 -49 53 -45 36
-54 41 -90 36 -23 -2 -41 0 -41 5 0 5 -6 9 -12 9 -19 1 -52 32 -65 63 -13 27
-36 36 -48 17z"/>
<path d="M3696 3707 c-10 -8 -29 -12 -42 -9 -14 2 -24 0 -24 -7 0 -6 5 -11 12
-11 6 0 8 -3 5 -7 -4 -3 -2 -12 4 -20 9 -10 8 -13 -5 -13 -9 0 -21 10 -26 23
-5 12 -9 15 -9 7 -1 -23 10 -34 52 -53 20 -10 37 -23 37 -30 0 -7 6 -4 14 6
16 21 36 22 36 1 0 -8 -4 -13 -9 -10 -11 7 -30 -15 -34 -41 -2 -12 -9 -29 -17
-38 -10 -12 -4 -11 23 5 20 12 40 19 45 16 14 -8 45 31 36 45 -4 7 -3 10 3 6
9 -6 23 12 23 29 0 11 -31 2 -36 -11 -8 -21 -22 -19 -20 3 2 33 40 56 48 30 3
-7 7 -5 11 6 4 10 3 15 -3 11 -6 -3 -10 -1 -10 4 0 6 -5 10 -12 9 -6 -2 -18 9
-25 25 -8 15 -18 27 -23 27 -4 0 -14 2 -22 5 -7 3 -22 -1 -32 -8z"/>
<path d="M2994 3636 c-12 -12 -26 -31 -33 -43 -6 -13 -18 -23 -25 -23 -8 0
-17 -11 -20 -25 -4 -16 -11 -23 -19 -20 -7 4 -3 -2 9 -12 20 -18 44 -91 44
-135 0 -21 5 -24 37 -25 52 -2 113 40 113 78 0 15 -4 31 -10 34 -5 3 -10 0
-10 -7 0 -7 -8 2 -16 20 -9 17 -20 32 -25 32 -14 0 -11 -18 4 -23 9 -4 8 -8
-3 -16 -10 -7 -11 -11 -2 -11 6 0 12 -4 12 -10 0 -5 -7 -10 -15 -10 -8 0 -15
6 -15 14 0 8 -6 17 -12 19 -10 4 -10 7 0 15 11 7 11 12 -2 25 -20 20 -21 31
-1 23 8 -3 19 2 24 12 7 11 11 12 11 4 0 -19 17 -6 23 19 4 16 3 19 -5 11 -8
-8 -17 -5 -34 11 -20 20 -21 24 -8 38 22 25 3 29 -22 5z"/>
<path d="M3422 3595 c10 -11 -22 -34 -47 -35 -19 -1 -19 -2 -3 -14 10 -7 15
-16 11 -19 -6 -7 8 -10 57 -11 18 -1 26 -7 28 -23 2 -13 -2 -23 -8 -23 -6 0
-8 5 -5 10 8 14 4 13 -37 -8 -32 -15 -35 -19 -24 -34 7 -10 28 -20 47 -23 26
-4 30 -3 14 4 -18 9 -17 10 9 10 21 1 27 -3 22 -14 -6 -18 5 -20 21 -4 6 6 9
18 5 27 -4 11 -1 14 10 9 17 -6 33 18 22 34 -3 5 0 9 5 9 23 0 9 19 -46 60
-52 38 -98 65 -81 45z"/>
<path d="M2454 3382 c-21 -14 -24 -42 -6 -60 41 -42 43 -48 29 -75 -8 -14 -24
-34 -36 -44 -12 -10 -24 -31 -27 -47 -5 -27 -3 -28 23 -21 15 3 29 11 31 16 4
11 32 -15 32 -30 0 -6 5 -11 11 -11 5 0 7 -4 4 -10 -3 -5 0 -10 8 -10 8 0 17
9 20 20 4 14 10 18 23 13 14 -5 16 -3 11 12 -6 15 -5 16 7 6 18 -15 37 -6 30
13 -6 15 29 31 45 21 5 -3 12 -1 15 4 3 5 -1 12 -10 15 -10 4 -14 14 -11 26 3
13 1 18 -6 13 -7 -4 -8 0 -4 11 4 10 7 27 7 37 0 11 5 17 10 14 20 -13 9 5
-22 34 -34 32 -65 38 -98 21 -15 -8 -23 -5 -38 15 -21 26 -30 30 -48 17z"/>
<path d="M3777 3304 c-4 -4 -7 -19 -7 -33 0 -33 -9 -47 -37 -55 -35 -11 -27
-39 15 -58 54 -24 102 -27 102 -7 0 6 -7 8 -16 5 -8 -3 -12 -2 -9 4 3 6 13 10
22 10 8 0 13 6 10 13 -3 7 4 30 14 52 25 51 12 65 -36 42 -39 -19 -48 -21 -42
-9 7 11 -8 44 -16 36z"/>
<path d="M1918 3203 c-33 -39 -39 -75 -48 -255 0 -3 -9 -4 -20 -1 -11 3 -17
10 -13 17 3 6 3 8 -2 4 -4 -4 -22 3 -39 16 -43 32 -70 41 -62 21 3 -10 -1 -15
-12 -16 -9 0 6 -8 35 -18 28 -10 63 -25 77 -34 14 -10 30 -17 37 -17 6 0 21
-8 34 -19 29 -22 16 -41 -26 -41 -38 0 -99 -27 -106 -48 -3 -9 -13 -25 -21
-34 -13 -15 -13 -18 -1 -18 11 0 12 -2 1 -9 -8 -4 -16 -30 -18 -57 l-5 -49 30
36 c17 20 49 44 73 54 28 11 38 19 29 24 -9 6 -5 15 16 33 15 13 29 31 31 39
3 15 30 39 44 39 16 0 8 -19 -14 -35 -23 -16 -22 -17 12 -10 19 3 57 11 84 18
43 10 50 9 61 -7 8 -10 19 -15 25 -11 6 4 22 0 35 -9 13 -9 36 -16 51 -16 15
0 51 -12 81 -26 29 -15 57 -24 60 -20 10 9 -12 42 -26 38 -6 -1 -11 3 -11 8 0
6 -10 8 -24 4 -42 -10 -100 34 -90 68 4 12 0 15 -16 11 -18 -5 -20 -1 -20 33
0 29 3 35 11 27 18 -18 64 10 79 46 7 17 16 29 20 26 14 -9 -8 66 -24 84 -9
10 -16 23 -16 29 0 7 -5 12 -11 12 -6 0 -9 -7 -5 -15 3 -8 1 -15 -4 -15 -13 0
-12 -21 1 -40 8 -11 12 -12 16 -2 6 14 23 16 23 3 0 -6 -12 -23 -26 -38 -14
-15 -24 -21 -21 -13 2 8 -7 24 -20 35 -14 11 -31 26 -38 33 -19 17 -33 15 -45
-8 -9 -16 -15 -18 -29 -10 -14 7 -22 5 -32 -7 -12 -14 -12 -16 2 -11 16 6 19
-3 19 -52 0 -37 -23 -80 -42 -80 -10 0 -18 -4 -18 -10 0 -5 -5 -10 -11 -10
-11 0 -9 16 6 53 5 12 2 17 -9 17 -9 0 -16 7 -16 15 0 8 4 15 10 15 5 0 7 7 4
15 -4 9 0 15 10 15 18 0 22 26 5 32 -9 3 -9 10 0 26 6 12 8 22 3 22 -11 0 -22
36 -14 44 3 3 12 0 21 -7 9 -7 8 -2 -4 15 -12 15 -28 26 -40 25 -14 -1 -19 3
-17 16 2 9 -1 17 -6 17 -5 0 -16 -8 -24 -17z"/>
<path d="M4184 3176 c-6 -6 -9 -17 -6 -24 6 -19 -15 -14 -22 5 -4 10 -10 13
-14 8 -7 -10 -27 -17 -49 -18 -7 0 -13 -4 -13 -9 0 -5 10 -6 22 -3 16 6 20 4
15 -9 -3 -8 -2 -18 3 -21 6 -4 10 1 10 9 0 11 9 16 28 16 21 0 28 -5 29 -21 2
-17 -1 -18 -13 -9 -11 10 -14 9 -14 -3 0 -26 -22 -67 -37 -67 -15 0 -18 -17
-2 -22 5 -2 7 -11 3 -21 -4 -12 -13 -16 -25 -12 -11 4 -19 3 -19 -2 0 -17 32
-53 47 -53 12 0 13 -3 3 -15 -10 -12 -15 -12 -33 5 -11 11 -24 20 -28 20 -12
0 -58 -66 -65 -94 -4 -18 -10 -24 -18 -18 -6 5 -22 12 -36 14 -14 3 -33 9 -42
13 -22 9 -24 -11 -3 -31 24 -25 17 -36 -10 -17 -15 11 -23 25 -21 36 3 11 -2
17 -15 17 -10 0 -19 -4 -19 -10 0 -5 4 -10 9 -10 5 0 7 -9 4 -19 -4 -16 -1
-19 15 -15 23 7 36 -19 23 -44 -10 -19 -4 -42 10 -42 6 0 7 5 3 11 -4 8 0 9
15 4 14 -4 30 0 47 14 15 12 37 21 50 21 31 0 54 25 54 59 0 37 8 43 34 25 13
-8 26 -11 29 -7 6 6 11 -26 8 -53 -1 -10 43 -36 83 -49 17 -5 18 -7 2 -24 -17
-19 -10 -37 9 -21 8 7 15 2 23 -15 10 -21 9 -27 -3 -31 -11 -5 -12 -9 -2 -19
9 -9 14 -10 20 -1 6 8 10 8 14 -2 5 -13 23 -7 23 9 0 6 -4 8 -9 5 -9 -6 -24
35 -15 43 2 3 19 -1 37 -7 44 -16 57 -15 57 3 0 8 5 15 10 15 6 0 19 9 30 20
12 12 26 18 32 14 8 -5 9 -1 5 10 -4 10 -7 24 -7 33 0 9 -6 13 -15 10 -22 -9
-31 14 -11 29 10 7 13 15 7 18 -5 3 -11 1 -13 -6 -3 -7 -11 -9 -24 -4 -16 7
-16 9 -4 15 17 7 25 31 11 31 -5 0 -9 6 -8 13 1 31 -4 45 -19 51 -13 5 -14 3
-7 -6 13 -16 23 -68 14 -68 -4 0 -13 6 -20 13 -11 10 -12 9 -6 -2 6 -10 2 -11
-16 -5 -13 4 -32 7 -41 6 -10 0 -18 3 -18 8 0 4 -10 6 -22 2 -16 -4 -19 -2
-13 8 6 10 4 12 -8 7 -46 -19 -50 -18 -25 1 14 12 29 22 33 22 9 0 55 48 55
57 0 3 -7 0 -15 -7 -13 -11 -20 -11 -41 0 -16 9 -20 16 -13 21 9 5 6 15 -9 34
-12 15 -18 33 -15 42 5 12 3 14 -7 8 -10 -6 -11 -3 -6 16 4 13 8 33 7 44 0 10
4 24 10 31 13 16 -12 36 -27 20z"/>
<path d="M2921 3110 c-13 -21 -27 -39 -30 -38 -19 2 -20 -6 -6 -37 8 -20 10
-33 5 -30 -6 3 -10 0 -10 -8 0 -20 33 -47 58 -47 26 0 39 -19 21 -32 -10 -6
-7 -8 11 -7 57 3 70 -1 70 -21 0 -21 24 -28 35 -10 3 6 -1 10 -10 10 -9 0 -14
4 -11 9 3 5 -7 14 -24 19 -21 8 -28 16 -24 26 4 11 0 16 -11 16 -14 0 -16 6
-10 27 6 27 6 27 -14 9 -12 -11 -21 -14 -21 -9 0 6 6 16 14 23 8 6 12 18 9 26
-3 7 2 17 11 20 20 8 21 24 1 24 -10 0 -15 11 -15 35 0 46 -19 45 -49 -5z"/>
<path d="M2800 3005 c0 -8 -6 -15 -14 -15 -7 0 -27 -3 -44 -6 -24 -5 -31 -2
-35 12 -2 11 -4 -1 -3 -26 1 -42 -1 -45 -29 -50 -20 -3 -31 -11 -32 -23 -1
-14 4 -17 18 -14 12 3 23 -2 29 -14 6 -10 18 -19 26 -19 8 0 33 -9 54 -19 22
-11 42 -15 45 -11 3 5 12 7 19 4 15 -6 46 37 46 63 -1 17 -1 17 -14 0 -8 -11
-20 -15 -30 -11 -12 5 -19 0 -23 -14 -6 -24 -49 -27 -57 -5 -7 17 60 73 88 73
29 0 53 25 35 36 -7 4 -25 7 -40 6 -26 -1 -28 2 -23 24 4 14 2 24 -5 24 -6 0
-11 -7 -11 -15z"/>
<path d="M4538 2575 c-3 -3 3 -29 13 -58 10 -28 18 -62 19 -74 0 -12 6 -26 14
-30 7 -4 18 -18 25 -30 10 -19 9 -22 -4 -17 -11 5 -14 2 -9 -10 4 -10 13 -15
21 -12 8 3 20 6 27 6 8 0 28 13 46 28 32 28 32 29 17 58 -9 16 -16 25 -17 21
0 -5 4 -16 9 -26 6 -11 6 -23 0 -32 -8 -12 -9 -12 -7 1 1 8 -3 25 -10 37 -7
12 -10 28 -7 35 3 7 0 22 -8 31 -10 15 -17 16 -41 7 -35 -13 -48 0 -40 40 5
21 2 26 -19 28 -13 1 -26 -1 -29 -3z"/>
<path d="M2259 2561 c11 -7 9 -10 -8 -16 -11 -3 -21 -11 -21 -16 0 -12 17 -12
25 1 11 18 20 10 39 -34 17 -39 25 -45 60 -52 23 -4 51 -7 64 -5 23 2 31 -14
10 -22 -10 -4 -9 -8 2 -16 9 -6 18 -6 26 0 8 7 17 4 28 -6 22 -23 20 -26 -10
-19 l-27 7 24 -32 c23 -31 39 -40 39 -21 0 5 15 12 34 16 40 7 39 22 -4 46
-17 10 -29 21 -28 25 3 9 -34 49 -51 54 -8 3 -5 14 11 34 l23 30 -33 -27 c-39
-33 -62 -35 -86 -9 -11 12 -25 17 -34 14 -10 -4 -14 -2 -10 2 8 8 -58 54 -77
55 -5 0 -4 -4 4 -9z"/>
<path d="M2308 2403 c-25 -13 -32 -28 -31 -69 0 -6 -7 -11 -16 -10 -12 1 -15
-6 -13 -29 2 -16 8 -34 13 -39 5 -6 9 -19 9 -29 0 -12 5 -17 14 -14 7 3 18 1
23 -4 5 -5 14 0 21 11 7 12 8 20 2 20 -5 0 -10 5 -10 12 0 6 3 8 6 5 4 -3 16
-1 28 5 21 12 27 15 47 17 8 1 9 5 0 14 -6 8 -8 16 -5 20 8 8 -35 29 -46 22
-6 -3 -10 1 -10 10 0 8 -10 19 -21 24 -21 7 -21 8 6 29 31 25 24 27 -17 5z"/>
<path d="M3530 2181 c-15 -4 -26 -15 -28 -29 -2 -14 -10 -22 -22 -22 -13 0
-17 5 -14 15 7 17 -4 19 -25 6 -9 -6 -10 -11 -2 -15 6 -4 11 -12 11 -17 0 -6
-4 -7 -10 -4 -5 3 -10 1 -10 -6 0 -6 8 -9 20 -6 11 3 23 1 26 -4 3 -5 0 -9 -5
-9 -15 0 -14 -27 1 -36 6 -4 14 -2 16 4 6 18 22 14 22 -4 0 -14 3 -14 15 -4 8
7 15 20 15 29 1 10 7 5 16 -13 11 -20 19 -25 26 -18 7 7 17 8 28 2 11 -6 29
-1 58 16 23 14 42 29 42 34 0 5 7 7 15 4 8 -4 15 -1 15 5 0 6 -19 11 -44 11
-31 0 -56 8 -85 27 -23 15 -41 30 -41 35 0 9 -4 9 -40 -1z"/>
<path d="M3310 2171 c0 -6 -7 -8 -16 -4 -10 4 -7 -6 10 -32 23 -34 31 -55 27
-77 0 -5 4 -8 10 -8 8 0 8 -4 0 -14 -8 -10 -8 -30 2 -79 13 -61 13 -67 -7
-102 -20 -35 -20 -37 -3 -49 9 -7 17 -19 17 -26 0 -8 7 -21 16 -31 13 -14 13
-21 3 -41 -17 -33 -17 -33 -37 -15 -18 16 -18 15 -18 -17 1 -25 5 -32 16 -28
8 3 18 10 22 16 4 6 13 11 20 12 7 0 21 2 32 2 17 2 18 8 12 59 -4 32 -15 72
-26 90 -11 18 -15 33 -11 33 5 0 12 11 15 25 4 14 11 25 17 25 6 0 5 9 -3 23
-15 27 -21 67 -11 67 18 0 5 48 -28 109 -31 59 -59 88 -59 62z"/>
<path d="M2976 2125 l17 -26 -29 6 c-21 5 -25 4 -14 -4 12 -8 10 -12 -12 -20
-14 -5 -28 -16 -30 -23 -4 -11 -8 -10 -22 1 -9 8 -20 11 -23 7 -4 -4 -1 -11 7
-16 8 -5 15 -29 17 -57 2 -26 7 -55 10 -63 3 -8 5 -20 4 -26 -2 -16 26 -37 39
-29 5 3 10 14 10 24 0 9 7 26 15 37 20 27 19 47 -3 40 -19 -6 -78 41 -67 53 4
3 17 -6 29 -21 23 -30 38 -36 34 -15 -2 7 6 11 20 10 12 -2 22 2 22 8 0 7 10
9 26 5 23 -6 24 -5 14 14 -12 22 -1 27 18 8 7 -7 12 -10 13 -7 10 70 10 71
-15 65 -18 -4 -29 -1 -38 12 -7 11 -23 24 -36 31 -23 12 -23 12 -6 -14z"/>
<path d="M2518 2020 c-3 -16 -1 -30 4 -30 4 0 8 -7 8 -15 0 -8 7 -15 16 -15
13 0 15 -8 9 -47 -3 -26 -8 -50 -11 -54 -2 -4 5 -5 17 -2 18 5 20 2 17 -23 -2
-19 -10 -30 -23 -32 -11 -2 -27 -9 -35 -16 -8 -7 -27 -17 -42 -24 -22 -9 -26
-9 -22 3 5 11 -5 13 -43 11 -69 -4 -75 -10 -71 -69 3 -50 2 -51 -40 -81 -35
-25 -45 -28 -52 -16 -7 11 -14 12 -34 2 -20 -9 -26 -9 -26 0 0 9 -3 9 -12 0
-9 -9 -17 -7 -35 10 l-23 21 0 -21 c0 -13 -5 -20 -13 -16 -9 3 -14 -7 -15 -31
-2 -22 2 -34 9 -33 6 2 17 -13 23 -31 8 -22 15 -30 20 -23 4 7 12 12 17 12 6
0 7 -4 4 -10 -10 -16 11 -12 25 5 7 8 19 15 27 15 8 0 28 12 44 28 16 15 41
39 56 54 35 33 63 66 86 101 20 30 50 37 45 10 -2 -10 4 -19 15 -21 12 -2 21
6 28 28 6 17 24 37 40 45 32 17 53 19 44 5 -3 -5 18 7 47 26 29 20 57 42 61
50 12 21 34 17 42 -8 3 -13 8 -18 11 -12 4 10 -22 84 -30 84 -3 0 -12 -7 -21
-17 -14 -14 -18 -14 -26 -2 -14 23 -4 34 27 31 26 -2 29 0 31 30 2 19 -5 45
-16 62 -19 28 -19 28 -30 8 -6 -12 -13 -34 -16 -49 -12 -72 -18 -93 -25 -93
-13 0 3 99 21 133 9 15 8 18 -3 15 -7 -3 -14 -14 -16 -26 -3 -22 -22 -32 -22
-12 0 6 -7 10 -15 10 -9 0 -15 10 -16 23 -1 21 -1 20 -13 -5 -8 -19 -16 -24
-25 -19 -11 7 -10 11 5 19 16 9 16 11 2 26 -22 22 -25 21 -30 -14z"/>
<path d="M4447 1859 c-3 -13 -11 -19 -19 -17 -9 4 -13 -5 -12 -34 0 -36 5 -43
42 -67 23 -14 41 -34 42 -44 0 -15 4 -14 24 8 29 31 66 26 92 -12 14 -22 14
-29 3 -52 -22 -43 -22 -47 0 -21 11 14 21 31 21 38 0 14 40 17 40 3 0 -5 6
-11 14 -14 10 -4 12 0 9 13 -4 15 2 21 23 26 16 4 35 11 42 17 19 15 14 45 -8
52 -11 3 -20 11 -20 16 0 5 -6 9 -14 9 -8 0 -17 7 -20 16 -4 10 -2 13 7 8 7
-5 7 -1 -2 10 -8 9 -20 15 -27 12 -7 -3 -16 0 -20 6 -4 7 -3 8 4 4 14 -8 15 3
3 23 -11 17 -55 -4 -46 -22 4 -7 0 -4 -8 6 -23 27 -37 20 -37 -19 0 -30 -3
-34 -19 -29 -11 3 -22 1 -26 -4 -3 -6 -22 -8 -43 -5 -36 6 -52 18 -52 39 0 6
4 3 10 -5 5 -8 10 -12 12 -10 16 26 24 47 21 58 -7 20 -30 14 -36 -9z"/>
<path d="M2940 1721 c0 -5 5 -11 10 -13 7 -2 6 -16 -4 -40 -14 -33 -14 -38 0
-52 14 -15 14 -16 -5 -16 -30 0 -35 -19 -8 -29 14 -6 28 -14 31 -19 3 -5 19
-9 36 -10 25 -1 30 3 30 23 0 37 18 75 36 75 14 0 15 -2 3 -17 -7 -10 -9 -15
-4 -10 4 4 17 0 27 -10 11 -9 18 -11 18 -5 0 7 7 12 16 12 14 0 14 3 4 15 -7
8 -21 15 -31 15 -10 0 -21 5 -24 10 -5 8 -11 8 -20 0 -15 -12 -25 6 -25 46 0
31 -5 30 -36 -3 -24 -26 -25 -27 -21 -5 3 12 1 22 -5 22 -5 0 -6 5 -3 10 3 6
-1 10 -9 10 -9 0 -16 -4 -16 -9z"/>
<path d="M2812 1590 c-7 -11 -12 -30 -12 -43 0 -16 -6 -23 -22 -24 -11 -1 -24
-6 -27 -10 -3 -4 -12 -8 -18 -9 -31 -2 -33 -5 -21 -24 7 -11 16 -20 21 -20 4
0 5 5 2 10 -11 18 22 10 39 -9 10 -11 31 -23 46 -26 21 -5 27 -11 23 -24 -3
-11 0 -22 6 -25 6 -4 11 0 11 10 0 14 3 15 12 6 8 -8 8 -15 -1 -26 -7 -8 -8
-17 -4 -19 16 -10 33 9 39 43 5 24 4 31 -5 26 -18 -12 -39 18 -34 47 3 15 9
30 14 33 12 7 -16 34 -35 34 -9 0 -16 5 -16 10 0 6 5 10 10 10 14 0 12 26 -3
38 -9 8 -16 6 -25 -8z"/>
<path d="M3769 1588 c-6 -14 -6 -60 0 -50 6 10 13 10 37 0 l29 -12 -33 -4
c-36 -4 -41 -27 -9 -50 18 -14 23 -32 8 -32 -5 0 -16 6 -23 13 -7 7 -28 20
-45 29 -25 13 -33 13 -33 4 0 -10 -10 -11 -40 -6 -64 12 -65 -19 -2 -36 15 -4
30 0 44 12 l22 19 -17 -25 c-22 -31 -22 -44 0 -36 10 4 14 4 11 0 -10 -10 18
-34 39 -34 14 0 15 2 4 9 -18 12 -5 17 56 26 l52 7 0 53 c-1 29 2 63 6 76 4
16 3 19 -3 11 -7 -11 -11 -10 -20 1 -7 8 -24 12 -43 9 -22 -3 -30 -1 -25 7 4
6 2 11 -3 11 -6 0 -12 -1 -12 -2z"/>
<path d="M2991 1453 c0 -7 -8 -13 -16 -13 -17 0 -20 -16 -5 -25 8 -5 5 -17
-17 -54 -2 -2 -12 4 -24 15 -18 16 -20 16 -18 3 2 -10 -11 -30 -30 -47 -32
-28 -36 -60 -6 -48 8 3 16 0 19 -7 2 -7 5 -5 5 4 1 22 30 33 47 18 11 -9 9
-19 -11 -55 -24 -43 -18 -57 15 -33 11 8 12 12 2 16 -6 2 -10 8 -7 13 3 5 23
1 44 -7 42 -16 71 -12 71 9 0 10 -2 10 -9 -1 -7 -11 -11 -10 -20 7 -8 15 -7
23 4 32 9 8 15 8 15 2 0 -5 9 -8 20 -5 23 6 52 -23 45 -45 -3 -7 0 -10 6 -7 6
4 10 1 8 -6 -4 -31 2 -49 16 -49 9 0 12 -6 8 -17 -5 -13 1 -11 20 7 31 29 34
56 10 82 -10 12 -12 18 -4 18 7 0 9 5 6 10 -4 6 -11 8 -16 5 -5 -4 -9 -1 -9 4
0 16 26 13 40 -4 6 -8 9 -19 5 -25 -3 -5 -1 -10 4 -10 14 0 14 37 1 45 -6 4
-4 15 6 30 17 27 16 70 -3 70 -17 0 -53 41 -45 52 4 5 -3 -2 -15 -15 -25 -25
-30 -61 -11 -80 9 -9 9 -12 0 -12 -7 0 -12 5 -12 10 0 6 -13 1 -29 -11 -29
-21 -69 -20 -56 2 4 6 13 8 21 5 19 -7 18 18 -1 34 -8 7 -15 29 -15 49 0 24
-3 32 -9 22 -5 -7 -7 -27 -4 -44 3 -17 0 -40 -5 -51 -6 -12 -13 -28 -15 -36
-4 -13 -6 -13 -11 1 -4 8 -1 29 5 45 13 30 12 56 -1 64 -4 3 -10 14 -13 25 -2
11 -5 14 -6 8z"/>
<path d="M4444 1234 c4 -12 2 -15 -9 -10 -8 3 -15 1 -15 -3 0 -11 -77 -52 -93
-50 -27 3 -47 -2 -47 -11 0 -5 6 -9 13 -7 7 1 11 -6 9 -18 -5 -26 -5 -26 -38
-30 -35 -3 -84 16 -60 25 20 7 8 25 -24 35 -23 7 -24 7 -10 -10 11 -14 11 -17
1 -11 -8 5 -16 3 -22 -5 -4 -7 -12 -10 -16 -5 -4 5 -2 11 5 13 10 4 10 8 1 19
-17 21 -24 17 -27 -13 -1 -15 -7 -30 -13 -34 -8 -5 -8 -12 0 -28 14 -25 17
-26 25 -5 3 8 2 12 -4 9 -6 -3 -10 1 -10 9 0 9 7 16 15 16 8 0 15 -6 15 -14 0
-8 5 -18 11 -22 7 -4 9 0 5 14 -4 11 -3 23 2 26 5 3 9 -9 8 -27 -1 -24 -6 -33
-21 -35 -11 -2 -32 -8 -48 -14 -22 -8 -25 -13 -16 -24 9 -11 5 -22 -16 -50
-15 -19 -24 -38 -21 -41 3 -4 -1 -14 -9 -23 -14 -16 -14 -17 10 -13 21 5 27 0
40 -31 12 -29 21 -37 38 -34 16 2 22 10 22 28 0 14 10 36 22 49 13 14 25 32
28 42 3 9 12 20 20 23 9 3 12 12 8 22 -5 14 -3 14 16 2 20 -12 25 -10 46 16
14 18 27 26 35 21 9 -6 11 -4 4 6 -15 25 -13 40 8 52 11 7 29 29 40 50 10 22
22 36 25 33 3 -3 0 -13 -8 -23 -11 -14 -9 -13 13 2 15 11 28 29 28 40 1 11 4
14 7 7 2 -6 9 -10 14 -6 13 8 11 54 -2 54 -6 0 -8 -7 -5 -16z"/>
<path d="M5480 3339 c-21 -17 -21 -20 -5 -14 15 5 17 3 8 -6 -8 -8 -19 -7 -43
7 -31 19 -32 19 -46 0 -10 -14 -14 -16 -14 -5 0 9 -3 10 -8 3 -4 -7 -23 -20
-42 -31 -42 -24 -48 -53 -25 -123 18 -53 39 -72 73 -65 30 5 62 24 62 35 0 6
8 10 17 10 9 0 14 3 10 6 -9 9 -41 -4 -65 -27 -19 -17 -22 -17 -22 -4 0 9 13
22 28 27 16 6 33 21 38 32 5 12 15 20 22 19 7 -2 12 4 12 12 0 8 8 15 19 15
10 0 21 9 24 20 3 11 0 20 -6 20 -6 0 -2 6 8 14 11 8 24 12 30 8 5 -3 1 4 -9
16 -13 15 -15 22 -6 22 10 0 10 3 0 15 -17 20 -30 19 -60 -6z"/>
<path d="M5110 768 c0 -6 10 -22 21 -34 13 -14 19 -29 15 -40 -4 -9 -9 -14
-13 -11 -3 3 -18 0 -33 -8 -33 -17 -50 -5 -50 36 0 36 -18 47 -29 17 -9 -26 3
-78 21 -90 9 -5 9 -8 1 -8 -8 0 -8 -7 0 -30 10 -26 13 -28 27 -15 9 8 21 15
27 15 6 0 13 7 17 15 6 18 53 20 58 3 3 -7 14 -9 31 -4 15 3 25 10 23 15 -3 5
2 8 11 7 9 0 18 5 20 12 3 6 -1 12 -9 12 -7 0 -21 15 -31 33 -18 34 -107 96
-107 75z"/>
</g>
</svg>
